<svg width="11" height="14" viewBox="0 0 11 14" fill="none" xmlns="http://www.w3.org/2000/svg">
<path fill-rule="evenodd" clip-rule="evenodd" d="M2.83195 0.302734C1.37842 0.302734 0.165283 1.64471 0.165283 3.11937V3.64139C0.165283 4.01005 0.463749 4.3087 0.832017 4.3087L0.83195 10.9694C0.83195 12.4313 2.03508 13.636 3.49862 13.636H7.49862C8.96195 13.636 10.1653 12.4353 10.1653 10.9694L10.166 4.3087C10.534 4.3087 10.8326 4.01005 10.8326 3.64139V2.97338C10.8326 1.50939 9.62728 0.302734 8.16528 0.302734H2.83195ZM2.83195 1.63606L8.18662 1.65873C8.91195 1.65873 9.49862 2.24273 9.49862 2.96939H1.49862C1.58128 2.27673 2.18842 1.63606 2.83195 1.63606ZM8.83195 4.30272H2.16528V10.9694C2.16528 11.69 2.76408 12.3027 3.49862 12.3027H7.49862C8.21795 12.3027 8.83195 11.702 8.83195 10.9694V4.30272ZM4.16522 5.62739C3.79702 5.62739 3.49848 5.92673 3.49855 6.29539V10.3013C3.49855 10.6707 3.79702 10.9694 4.16522 10.9694C4.53328 10.9694 4.83195 10.6707 4.83195 10.3013V6.29539C4.83195 5.92673 4.53328 5.62739 4.16522 5.62739ZM6.16528 6.29539C6.16528 5.92673 6.46395 5.62739 6.83195 5.62739C7.19995 5.62739 7.49862 5.92673 7.49862 6.29539V10.3013C7.49862 10.6707 7.19995 10.9694 6.83195 10.9694C6.46395 10.9694 6.16528 10.6707 6.16528 10.3013V6.29539Z" fill="#262523"/>
</svg>
