<svg width="13" height="14" viewBox="0 0 13 14" fill="none" xmlns="http://www.w3.org/2000/svg">
<path fill-rule="evenodd" clip-rule="evenodd" d="M3.35791 0.342773C2.98991 0.342773 2.69125 0.64144 2.69125 1.00944C1.21725 1.00944 0.00390625 2.20477 0.00390625 3.67611V5.00944L0.0245769 10.3428C0.0245769 11.8134 1.21858 13.0094 2.69125 13.0094H9.35791C10.8306 13.0094 12.0246 11.8154 12.0246 10.3428L12.0039 5.00944V3.67611C12.0039 2.20211 10.8292 1.00944 9.35791 1.00944C9.35791 0.64144 9.05991 0.342773 8.69124 0.342773C8.32324 0.342773 8.02457 0.64144 8.02457 1.00944H4.02458C4.02458 0.64144 3.72658 0.342773 3.35791 0.342773ZM2.69125 2.34277C2.69125 2.71077 2.98991 3.00944 3.35791 3.00944C3.72658 3.00944 4.02458 2.71077 4.02458 2.34277H8.02457C8.02457 2.71077 8.32324 3.00944 8.69124 3.00944C9.05991 3.00944 9.35791 2.71077 9.35791 2.34277C10.0892 2.34277 10.6706 2.93477 10.6706 3.67611V4.34277H1.33724V3.67611C1.33724 2.94477 1.94991 2.34277 2.69125 2.34277ZM10.6706 5.67611H1.33724L1.35791 10.3428C1.35791 11.0794 1.95525 11.6761 2.69125 11.6761H9.35791C10.0946 11.6761 10.6912 11.0768 10.6912 10.3428L10.6706 5.67611Z" fill="#262523"/>
</svg>
