<svg width="15" height="15" viewBox="0 0 15 15" fill="none" xmlns="http://www.w3.org/2000/svg">
<path fill-rule="evenodd" clip-rule="evenodd" d="M0 3.33333C0 1.49242 1.4925 0 3.33332 0H11.6667C13.5075 0 15 1.49242 15 3.33333V11.6667C15 13.5076 13.5075 15 11.6667 15H3.33332C1.4925 15 0 13.5076 0 11.6667V3.33333ZM11.6667 1.66667H3.33333C2.4125 1.66667 1.66667 2.41283 1.66667 3.33333V11.6667C1.66667 12.5872 2.4125 13.3333 3.33333 13.3333H11.6667C12.5875 13.3333 13.3333 12.5872 13.3333 11.6667V3.33333C13.3333 2.41283 12.5875 1.66667 11.6667 1.66667Z" fill="#2D365C"/>
<rect x="4.50781" y="4.55859" width="6" height="6" rx="1" fill="#2D365C"/>
</svg>
