<svg width="14" height="15" viewBox="0 0 14 15" fill="none" xmlns="http://www.w3.org/2000/svg">
<path fill-rule="evenodd" clip-rule="evenodd" d="M3.99316 0.5C3.57916 0.5 3.24316 0.835999 3.24316 1.25C1.58641 1.25 0.243164 2.59324 0.243164 4.24998V11.75C0.243164 13.4067 1.58641 14.7499 3.24316 14.7499H10.7432C12.3999 14.7499 13.7432 13.4067 13.7432 11.75V4.24998C13.7432 2.59324 12.3999 1.25 10.7432 1.25C10.7432 0.835999 10.4072 0.5 9.99316 0.5C9.57916 0.5 9.24316 0.835999 9.24316 1.25H6.99316H4.74316C4.74316 0.835999 4.40716 0.5 3.99316 0.5ZM3.24316 2.74999V3.49999C3.24316 4.76674 4.36367 5.74999 5.70392 5.74999H8.28241C9.62266 5.74999 10.7432 4.76674 10.7432 3.49999V2.74999C11.5719 2.74999 12.2432 3.42124 12.2432 4.24998V11.75C12.2432 12.5787 11.5719 13.2499 10.7432 13.2499H3.24316C2.41441 13.2499 1.74316 12.5787 1.74316 11.75V4.24998C1.74316 3.42124 2.41441 2.74999 3.24316 2.74999ZM6.99316 2.74999H4.74316V3.49999C4.74316 3.88999 5.15117 4.24999 5.70392 4.24999H8.28241C8.83516 4.24999 9.24316 3.88999 9.24316 3.49999V2.74999H6.99316Z" fill="#92A1D9"/>
</svg>
