<svg width="14" height="14" viewBox="0 0 14 14" fill="none" xmlns="http://www.w3.org/2000/svg">
<path fill-rule="evenodd" clip-rule="evenodd" d="M1.2571 2.31675C0.966749 2.02134 0.97085 1.54648 1.26626 1.25613C1.56167 0.965773 2.03653 0.969873 2.32688 1.26528L6.79199 5.80818L11.2571 1.26528C11.5475 0.969873 12.0223 0.965773 12.3177 1.25613C12.6131 1.54648 12.6172 2.02134 12.3269 2.31675L7.84361 6.87812L12.3269 11.4395C12.6172 11.7349 12.6131 12.2098 12.3177 12.5001C12.0223 12.7905 11.5475 12.7864 11.2571 12.491L6.79199 7.94806L2.32688 12.491C2.03653 12.7864 1.56167 12.7905 1.26626 12.5001C0.97085 12.2098 0.96675 11.7349 1.2571 11.4395L5.74037 6.87812L1.2571 2.31675Z" fill="#7B7F92"/>
<path d="M1.26626 1.25613L1.61675 1.61272L1.61675 1.61272L1.26626 1.25613ZM1.2571 2.31675L1.6137 1.96626L1.6137 1.96626L1.2571 2.31675ZM2.32688 1.26528L1.97029 1.61577L1.97029 1.61577L2.32688 1.26528ZM6.79199 5.80818L6.4354 6.15867C6.5294 6.25431 6.65789 6.30818 6.79199 6.30818C6.9261 6.30818 7.05458 6.25431 7.14859 6.15867L6.79199 5.80818ZM11.2571 1.26528L11.6137 1.61577V1.61577L11.2571 1.26528ZM12.3177 1.25613L11.9672 1.61272L11.9672 1.61272L12.3177 1.25613ZM12.3269 2.31675L11.9703 1.96626V1.96626L12.3269 2.31675ZM7.84361 6.87812L7.48702 6.52764C7.29581 6.72218 7.29581 7.03407 7.48702 7.22861L7.84361 6.87812ZM12.3269 11.4395L11.9703 11.79L12.3269 11.4395ZM12.3177 12.5001L11.9672 12.1435L12.3177 12.5001ZM11.2571 12.491L10.9005 12.8414V12.8414L11.2571 12.491ZM6.79199 7.94806L7.14859 7.59757C7.05458 7.50193 6.9261 7.44806 6.79199 7.44806C6.65789 7.44806 6.5294 7.50193 6.4354 7.59757L6.79199 7.94806ZM2.32688 12.491L1.97029 12.1405L1.97029 12.1405L2.32688 12.491ZM1.26626 12.5001L1.61675 12.1435H1.61675L1.26626 12.5001ZM1.2571 11.4395L1.6137 11.79H1.6137L1.2571 11.4395ZM5.74037 6.87812L6.09697 7.22861C6.28818 7.03407 6.28818 6.72218 6.09697 6.52764L5.74037 6.87812ZM0.915775 0.899533C0.423422 1.38345 0.416587 2.17488 0.90051 2.66723L1.6137 1.96626C1.51691 1.86779 1.51828 1.7095 1.61675 1.61272L0.915775 0.899533ZM2.68348 0.914798C2.19955 0.422445 1.40813 0.415611 0.915775 0.899533L1.61675 1.61272C1.71522 1.51593 1.8735 1.5173 1.97029 1.61577L2.68348 0.914798ZM7.14859 5.4577L2.68348 0.914798L1.97029 1.61577L6.4354 6.15867L7.14859 5.4577ZM7.14859 6.15867L11.6137 1.61577L10.9005 0.914798L6.4354 5.4577L7.14859 6.15867ZM11.6137 1.61577C11.7105 1.5173 11.8688 1.51593 11.9672 1.61272L12.6682 0.899533C12.1759 0.415611 11.3844 0.422445 10.9005 0.914798L11.6137 1.61577ZM11.9672 1.61272C12.0657 1.7095 12.0671 1.86779 11.9703 1.96626L12.6835 2.66723C13.1674 2.17488 13.1606 1.38345 12.6682 0.899533L11.9672 1.61272ZM11.9703 1.96626L7.48702 6.52764L8.2002 7.22861L12.6835 2.66723L11.9703 1.96626ZM12.6835 11.089L8.2002 6.52764L7.48702 7.22861L11.9703 11.79L12.6835 11.089ZM12.6682 12.8567C13.1606 12.3728 13.1674 11.5814 12.6835 11.089L11.9703 11.79C12.0671 11.8885 12.0657 12.0467 11.9672 12.1435L12.6682 12.8567ZM10.9005 12.8414C11.3844 13.3338 12.1759 13.3406 12.6682 12.8567L11.9672 12.1435C11.8688 12.2403 11.7105 12.2389 11.6137 12.1405L10.9005 12.8414ZM6.4354 8.29855L10.9005 12.8414L11.6137 12.1405L7.14859 7.59757L6.4354 8.29855ZM6.4354 7.59757L1.97029 12.1405L2.68348 12.8414L7.14859 8.29855L6.4354 7.59757ZM1.97029 12.1405C1.8735 12.2389 1.71522 12.2403 1.61675 12.1435L0.915774 12.8567C1.40813 13.3406 2.19955 13.3338 2.68348 12.8414L1.97029 12.1405ZM1.61675 12.1435C1.51828 12.0467 1.51691 11.8885 1.6137 11.79L0.90051 11.089C0.416588 11.5814 0.423422 12.3728 0.915775 12.8567L1.61675 12.1435ZM1.6137 11.79L6.09697 7.22861L5.38378 6.52764L0.90051 11.089L1.6137 11.79ZM0.90051 2.66723L5.38378 7.22861L6.09697 6.52764L1.6137 1.96626L0.90051 2.66723Z" fill="#7B7F92"/>
</svg>
