<svg width="12" height="14" viewBox="0 0 12 14" fill="none" xmlns="http://www.w3.org/2000/svg">
  <path fill-rule="evenodd" clip-rule="evenodd"
        d="M3.35221 0.332031C1.87955 0.332031 0.685547 1.52603 0.685547 2.9987V10.9987C0.685547 12.4714 1.87955 13.6654 3.35221 13.6654H8.68555C10.1582 13.6654 11.3522 12.4714 11.3522 10.9987V2.9987C11.3522 1.52603 10.1582 0.332031 8.68555 0.332031H3.35221ZM3.35221 1.66537H8.68555C9.42221 1.66537 10.0189 2.26204 10.0189 2.9987V10.9987C10.0189 11.7354 9.42221 12.3321 8.68555 12.3321H3.35221C2.61555 12.3321 2.01888 11.7354 2.01888 10.9987V2.9987C2.01888 2.26204 2.61555 1.66537 3.35221 1.66537ZM3.35221 3.66537C3.35221 3.29737 3.65088 2.9987 4.01888 2.9987H8.01888C8.38688 2.9987 8.68555 3.29737 8.68555 3.66537C8.68555 4.03337 8.38688 4.33204 8.01888 4.33204H4.01888C3.65088 4.33204 3.35221 4.03337 3.35221 3.66537ZM4.01888 5.66538C3.65088 5.66538 3.35221 5.96405 3.35221 6.33205C3.35221 6.70005 3.65088 6.99871 4.01888 6.99871H8.01888C8.38688 6.99871 8.68555 6.70005 8.68555 6.33205C8.68555 5.96405 8.38688 5.66538 8.01888 5.66538H4.01888ZM3.35221 8.99872C3.35221 8.63072 3.65088 8.33205 4.01888 8.33205H6.01888C6.38688 8.33205 6.68555 8.63072 6.68555 8.99872C6.68555 9.36672 6.38688 9.66539 6.01888 9.66539H4.01888C3.65088 9.66539 3.35221 9.36672 3.35221 8.99872Z"
        fill="black"/>
</svg>
