<svg width="12" height="15" viewBox="0 0 12 15" fill="none" xmlns="http://www.w3.org/2000/svg">
<path fill-rule="evenodd" clip-rule="evenodd" d="M3.06055 0.832031C1.75928 0.832031 0.685547 1.81869 0.685547 3.06136V11.936C0.685547 13.1787 1.75928 14.1654 3.06055 14.1654H8.97721C10.2785 14.1654 11.3522 13.1787 11.3522 11.936V5.4987C11.3522 5.49203 11.3524 5.48469 11.3522 5.47802C11.3522 3.10269 9.05928 0.832031 6.68555 0.832031H3.06055ZM3.06055 2.16536H6.01888V3.93604C6.01888 5.1787 7.09261 6.16536 8.39388 6.16536H10.0189V11.936C10.0189 12.412 9.56948 12.832 8.97721 12.832H3.06055C2.46828 12.832 2.01888 12.412 2.01888 11.936V3.06136C2.01888 2.58536 2.46828 2.16536 3.06055 2.16536ZM9.87301 4.83203C9.56695 3.65403 8.53335 2.64536 7.35221 2.33203V3.93604C7.35221 4.41204 7.80081 4.83203 8.39388 4.83203H9.87301Z" fill="#2D365C"/>
</svg>
