<svg width="28" height="40" viewBox="0 0 28 40" fill="none" xmlns="http://www.w3.org/2000/svg">
<path fill-rule="evenodd" clip-rule="evenodd" d="M0 1.00042C0 0.447903 0.439813 0 0.996535 0H27.0035C27.5538 0 28 0.455173 28 1.00042V34.5858C28 34.851 27.8946 35.1054 27.7071 35.2929L23.2929 39.7071C23.1054 39.8946 22.851 40 22.5858 40H0.996535C0.446164 40 0 39.5448 0 38.9996C0 22 0 18 0 1.00042Z" fill="#262523"/>
<path d="M5.38747 24C5.35081 24 5.31781 23.989 5.28847 23.967C5.26647 23.9377 5.25547 23.9047 5.25547 23.868V16.432C5.25547 16.3953 5.26647 16.366 5.28847 16.344C5.31781 16.3147 5.35081 16.3 5.38747 16.3H8.13747C8.68747 16.3 9.16781 16.399 9.57847 16.597C9.99647 16.7877 10.3191 17.059 10.5465 17.411C10.7738 17.763 10.8875 18.17 10.8875 18.632V21.668C10.8875 22.13 10.7738 22.537 10.5465 22.889C10.3191 23.241 9.99647 23.516 9.57847 23.714C9.16781 23.9047 8.68747 24 8.13747 24H5.38747ZM6.80647 22.614C6.80647 22.6507 6.82481 22.669 6.86147 22.669H8.19247C8.52981 22.669 8.80114 22.5553 9.00647 22.328C9.21914 22.1007 9.32914 21.7963 9.33647 21.415V18.885C9.33647 18.5037 9.23014 18.1993 9.01747 17.972C8.81214 17.7447 8.53347 17.631 8.18147 17.631H6.86147C6.82481 17.631 6.80647 17.6493 6.80647 17.686V22.614ZM14.4533 24.088C13.8373 24.088 13.3093 23.9267 12.8693 23.604C12.4293 23.2813 12.1286 22.8413 11.9673 22.284C11.8646 21.9393 11.8133 21.5653 11.8133 21.162C11.8133 20.7293 11.8646 20.3407 11.9673 19.996C12.1359 19.4533 12.4403 19.028 12.8803 18.72C13.3203 18.412 13.8483 18.258 14.4643 18.258C15.0656 18.258 15.5789 18.412 16.0043 18.72C16.4296 19.0207 16.7303 19.4423 16.9063 19.985C17.0236 20.3517 17.0823 20.7367 17.0823 21.14C17.0823 21.536 17.0309 21.9063 16.9283 22.251C16.7669 22.823 16.4663 23.274 16.0263 23.604C15.5936 23.9267 15.0693 24.088 14.4533 24.088ZM14.4533 22.757C14.6953 22.757 14.9006 22.6837 15.0693 22.537C15.2379 22.3903 15.3589 22.1887 15.4323 21.932C15.4909 21.6973 15.5203 21.4407 15.5203 21.162C15.5203 20.854 15.4909 20.5937 15.4323 20.381C15.3516 20.1317 15.2269 19.9373 15.0583 19.798C14.8896 19.6587 14.6843 19.589 14.4423 19.589C14.1929 19.589 13.9839 19.6587 13.8153 19.798C13.6539 19.9373 13.5366 20.1317 13.4633 20.381C13.4046 20.557 13.3753 20.8173 13.3753 21.162C13.3753 21.492 13.4009 21.7487 13.4523 21.932C13.5256 22.1887 13.6466 22.3903 13.8153 22.537C13.9913 22.6837 14.2039 22.757 14.4533 22.757ZM20.5653 24.088C19.9787 24.088 19.469 23.9413 19.0363 23.648C18.611 23.3547 18.3067 22.9513 18.1233 22.438C17.9987 22.0713 17.9363 21.6387 17.9363 21.14C17.9363 20.6487 17.9987 20.2233 18.1233 19.864C18.2993 19.3653 18.6037 18.973 19.0363 18.687C19.469 18.401 19.9787 18.258 20.5653 18.258C21.152 18.258 21.6653 18.4047 22.1053 18.698C22.5527 18.9913 22.8497 19.3617 22.9963 19.809C23.055 19.985 23.0843 20.117 23.0843 20.205V20.227C23.0843 20.293 23.0477 20.3333 22.9743 20.348L21.7093 20.535H21.6873C21.6213 20.535 21.5773 20.4983 21.5553 20.425L21.5223 20.249C21.471 20.0583 21.3573 19.9007 21.1813 19.776C21.0053 19.6513 20.7963 19.589 20.5543 19.589C20.3197 19.589 20.1217 19.6477 19.9603 19.765C19.799 19.8823 19.6853 20.0437 19.6193 20.249C19.5387 20.469 19.4983 20.7697 19.4983 21.151C19.4983 21.5323 19.535 21.833 19.6083 22.053C19.6743 22.273 19.788 22.4453 19.9493 22.57C20.118 22.6947 20.3197 22.757 20.5543 22.757C20.7817 22.757 20.9797 22.6983 21.1483 22.581C21.3243 22.4563 21.4453 22.2877 21.5113 22.075C21.5187 22.0603 21.5223 22.0383 21.5223 22.009C21.5297 22.0017 21.5333 21.9907 21.5333 21.976C21.5407 21.888 21.592 21.8513 21.6873 21.866L22.9523 22.064C23.0257 22.0787 23.0623 22.119 23.0623 22.185C23.0623 22.2437 23.0403 22.3537 22.9963 22.515C22.8423 23.0063 22.5417 23.3913 22.0943 23.67C21.6543 23.9487 21.1447 24.088 20.5653 24.088Z" fill="#F9F9F9"/>
</svg>
