<svg width="16" height="16" viewBox="0 0 16 16" fill="none" xmlns="http://www.w3.org/2000/svg">
<path fill-rule="evenodd" clip-rule="evenodd" d="M7.15885 0.999349C7.15885 0.539099 7.53219 0.166016 7.99219 0.166016C8.45219 0.165932 8.82552 0.539099 8.82552 0.999349V9.33268H11.3255L7.99219 12.666L4.65885 9.33268H7.15885V0.999349ZM0.492188 10.9993C0.492188 10.5393 0.865271 10.166 1.32552 10.166C1.78577 10.166 2.15885 10.5393 2.15885 10.9993V12.666C2.15885 13.5868 2.90502 14.3327 3.82552 14.3327H12.1589C13.0797 14.3327 13.8255 13.5868 13.8255 12.666V10.9993C13.8255 10.5393 14.1989 10.166 14.6589 10.166C15.1189 10.166 15.4922 10.5393 15.4922 10.9993V12.666C15.4922 14.5068 13.9997 15.9993 12.1589 15.9993H3.82552C1.9846 15.9993 0.492188 14.5068 0.492188 12.666V10.9993Z" fill="#2D365C"/>
</svg>
