<svg width="14" height="12" viewBox="0 0 14 12" fill="none" xmlns="http://www.w3.org/2000/svg">
<path fill-rule="evenodd" clip-rule="evenodd" d="M3.00945 0.664062C1.53677 0.664062 0.342773 1.85806 0.342773 3.33073V8.66406C0.342773 10.1367 1.53677 11.3307 3.00945 11.3307H11.0094C12.4821 11.3307 13.6761 10.1367 13.6761 8.66406V3.33073C13.6761 1.85806 12.4821 0.664062 11.0094 0.664062H3.00945ZM3.00945 1.9974H11.0094C11.6814 1.9974 12.2368 2.49073 12.3288 3.1374C11.6901 3.73273 10.7408 4.46339 10.1134 4.91406C8.67011 5.95072 7.40011 6.66406 7.00944 6.66406C6.61878 6.66406 5.34878 5.95139 3.90544 4.91406C3.27811 4.46339 2.66145 3.97606 2.19678 3.58073C1.99878 3.41206 1.85211 3.27606 1.73877 3.16406C1.83077 2.5174 2.33744 1.9974 3.00945 1.9974ZM7.00944 7.9974C5.85411 7.9894 3.37479 6.26873 1.68278 4.90006L1.67611 8.66406C1.67611 9.40073 2.27277 9.9974 3.00945 9.9974H11.0094C11.7461 9.9974 12.3428 9.40073 12.3428 8.66406L12.3434 4.89072C11.7981 5.34872 11.0421 5.90672 10.3628 6.37672C9.04944 7.28406 7.76211 8.00273 7.00944 7.9974Z" fill="#262523"/>
</svg>
