<svg width="21" height="8" viewBox="0 0 21 8" fill="none" xmlns="http://www.w3.org/2000/svg">
<path d="M4.494 7.52054C3.35533 7.52054 2.408 7.16587 1.652 6.45654C0.896 5.74721 0.518 4.85587 0.518 3.78254C0.518 2.73721 0.877333 1.85054 1.596 1.12254C2.324 0.385205 3.192 0.0165384 4.2 0.0165384C5.32933 0.0165384 6.202 0.408538 6.818 1.19254C7.434 1.96721 7.69533 2.98454 7.602 4.24454H2.254C2.34733 4.78587 2.61333 5.21054 3.052 5.51854C3.49067 5.82654 4.046 5.98054 4.718 5.98054C5.14733 5.98054 5.572 5.91054 5.992 5.77054C6.42133 5.62121 6.78533 5.42521 7.084 5.18254V6.80654C6.75733 7.03054 6.36533 7.20787 5.908 7.33854C5.45067 7.45987 4.97933 7.52054 4.494 7.52054ZM4.172 1.50054C3.724 1.50054 3.332 1.63587 2.996 1.90654C2.66933 2.17721 2.44067 2.54587 2.31 3.01254H5.88C5.83333 2.57387 5.65133 2.21454 5.334 1.93454C5.026 1.64521 4.63867 1.50054 4.172 1.50054ZM8.76943 6.84854V5.12654C9.0961 5.42521 9.46943 5.65854 9.88943 5.82654C10.3094 5.99454 10.7248 6.07854 11.1354 6.07854C11.4528 6.07854 11.7001 6.01787 11.8774 5.89654C12.0641 5.76587 12.1574 5.59321 12.1574 5.37854C12.1574 5.22921 12.1154 5.10787 12.0314 5.01454C11.9568 4.91187 11.7934 4.79987 11.5414 4.67854L10.2254 4.10454C9.7401 3.88987 9.3901 3.63321 9.17543 3.33454C8.96077 3.03587 8.85343 2.67187 8.85343 2.24254C8.85343 1.60787 9.10077 1.08054 9.59543 0.660539C10.0901 0.231205 10.7108 0.0165384 11.4574 0.0165384C11.8308 0.0165384 12.1901 0.0725385 12.5354 0.184539C12.8901 0.287205 13.2074 0.436539 13.4874 0.632539V2.29854C13.1421 2.03721 12.7968 1.83654 12.4514 1.69654C12.1154 1.55654 11.7888 1.48654 11.4714 1.48654C11.2008 1.48654 10.9814 1.54721 10.8134 1.66854C10.6548 1.78054 10.5754 1.93921 10.5754 2.14454C10.5754 2.28454 10.6174 2.40587 10.7014 2.50854C10.7948 2.60187 11.0048 2.72321 11.3314 2.87254L12.5914 3.41854C13.0488 3.62387 13.3801 3.87587 13.5854 4.17454C13.8001 4.46387 13.9074 4.82787 13.9074 5.26654C13.9074 5.91987 13.6414 6.46121 13.1094 6.89054C12.5774 7.31054 11.9241 7.52054 11.1494 7.52054C10.7014 7.52054 10.2721 7.46454 9.86143 7.35254C9.45077 7.23121 9.08677 7.06321 8.76943 6.84854ZM16.7305 3.76854C16.7305 4.37521 16.9358 4.88387 17.3465 5.29454C17.7665 5.70521 18.2751 5.91054 18.8725 5.91054C19.1805 5.91054 19.4558 5.86854 19.6985 5.78454C19.9505 5.69121 20.1931 5.55121 20.4265 5.36454V7.12854C20.2025 7.25921 19.9458 7.35721 19.6565 7.42254C19.3765 7.48787 19.0778 7.52054 18.7605 7.52054C17.7151 7.52054 16.8191 7.16121 16.0725 6.44254C15.3351 5.71454 14.9665 4.82321 14.9665 3.76854C14.9665 2.71387 15.3351 1.82721 16.0725 1.10854C16.8191 0.380539 17.7151 0.0165384 18.7605 0.0165384C19.0778 0.0165384 19.3765 0.0492052 19.6565 0.114539C19.9458 0.179872 20.2025 0.277872 20.4265 0.408539V2.17254C20.1838 1.98587 19.9365 1.85054 19.6845 1.76654C19.4418 1.68254 19.1711 1.64054 18.8725 1.64054C18.2751 1.64054 17.7665 1.84587 17.3465 2.25654C16.9358 2.65787 16.7305 3.16187 16.7305 3.76854Z" fill="#262523"/>
</svg>
