<svg width="13" height="13" viewBox="0 0 13 13" fill="none" xmlns="http://www.w3.org/2000/svg">
<path fill-rule="evenodd" clip-rule="evenodd" d="M8.50163 2.32747V0.994141H11.835C12.2032 0.994141 12.5016 1.29281 12.5016 1.66081V4.99414H11.1683V3.28613L8.31416 6.14013C8.05383 6.40013 7.61616 6.40013 7.35583 6.14013C7.0955 5.87947 7.0955 5.44215 7.35583 5.18148L10.21 2.32747H8.50163ZM4.68136 7.84814C4.81163 7.71814 4.98996 7.66081 5.16056 7.66081C5.3311 7.66081 5.50956 7.71814 5.6397 7.84814C5.9001 8.10881 5.9001 8.54614 5.6397 8.80681L2.78556 11.6608H4.4939V12.9941H1.16056C0.792363 12.9941 0.493896 12.6955 0.493896 12.3275V8.99414H1.82723V10.7021L4.68136 7.84814Z" fill="#262523"/>
</svg>
