<svg width="20" height="20" viewBox="0 0 20 20" fill="none" xmlns="http://www.w3.org/2000/svg">
  <path fill-rule="evenodd" clip-rule="evenodd" d="M6.32528 1.66565C4.69944 1.66565 3.35693 2.89898 3.35693 4.45232V15.5457C3.35693 17.0991 4.69944 18.3324 6.32528 18.3324H13.7219C15.3478 18.3324 16.6903 17.0991 16.6903 15.5457V7.499V7.47317C16.6903 4.50398 13.8244 1.66565 10.8569 1.66565H6.32528ZM6.32528 3.33232H10.0236V5.54567C10.0236 7.09901 11.3661 8.33233 12.9919 8.33233H15.0236V15.5457C15.0236 16.1407 14.4619 16.6657 13.7219 16.6657H6.32528C5.58528 16.6657 5.0236 16.1407 5.0236 15.5457V4.45232C5.0236 3.85732 5.58528 3.33232 6.32528 3.33232ZM14.9194 6.66567C14.5369 5.19316 13.1669 3.82816 11.6903 3.43649V5.54567C11.6903 6.14067 12.2511 6.66567 12.9919 6.66567H14.9194ZM7.5236 4.16566C7.0636 4.16566 6.69027 4.53899 6.69027 4.99899C6.69027 5.45899 7.0636 5.83233 7.5236 5.83233H8.35693C8.81693 5.83233 9.19027 5.45899 9.19027 4.99899C9.19027 4.53899 8.81693 4.16566 8.35693 4.16566H7.5236ZM6.69027 7.499C6.69027 7.039 7.0636 6.66567 7.5236 6.66567H8.35693C8.81693 6.66567 9.19027 7.039 9.19027 7.499C9.19027 7.959 8.81693 8.33233 8.35693 8.33233H7.5236C7.0636 8.33233 6.69027 7.959 6.69027 7.499ZM7.5236 9.16567C7.0636 9.16567 6.69027 9.53901 6.69027 9.99898C6.69027 10.459 7.0636 10.8323 7.5236 10.8323H8.35693C8.81693 10.8323 9.19027 10.459 9.19027 9.99898C9.19027 9.53901 8.81693 9.16567 8.35693 9.16567H7.5236ZM6.69027 12.499C6.69027 12.039 7.0636 11.6656 7.5236 11.6656H8.35693C8.81693 11.6656 9.19027 12.039 9.19027 12.499V14.1656C9.19027 14.6256 8.81693 14.999 8.35693 14.999H7.5236C7.0636 14.999 6.69027 14.6256 6.69027 14.1656V12.499Z" fill="#92A1D9"/>
</svg>
