<svg width="14" height="15" viewBox="0 0 14 15" fill="none" xmlns="http://www.w3.org/2000/svg">
<path fill-rule="evenodd" clip-rule="evenodd" d="M0 2.05556C0 1.19611 0.696422 0.5 1.55556 0.5H4.66667C5.5261 0.5 6.22221 1.19611 6.22221 2.05556V5.16667C6.22221 6.02609 5.5261 6.72221 4.66667 6.72221H1.55556C0.696422 6.72221 0 6.02609 0 5.16667V2.05556ZM7.77734 2.05556C7.77734 1.19611 8.47345 0.5 9.3329 0.5H12.444C13.3035 0.5 13.9996 1.19611 13.9996 2.05556V5.16667C13.9996 6.02609 13.3035 6.72221 12.444 6.72221H9.3329C8.47345 6.72221 7.77734 6.02609 7.77734 5.16667V2.05556ZM1.55469 2.05554H4.6658V5.16665H1.55469V2.05554ZM12.4451 2.05554H9.33398V5.16665H12.4451V2.05554ZM1.55556 8.27776C0.696422 8.27776 0 8.97387 0 9.83332V12.9444C0 13.8039 0.696422 14.5 1.55556 14.5H4.66667C5.5261 14.5 6.22221 13.8039 6.22221 12.9444V9.83332C6.22221 8.97387 5.5261 8.27776 4.66667 8.27776H1.55556ZM7.77734 9.83333C7.77734 8.97388 8.47345 8.27777 9.3329 8.27777H12.444C13.3035 8.27777 13.9996 8.97388 13.9996 9.83333V12.9444C13.9996 13.8039 13.3035 14.5 12.444 14.5H9.3329C8.47345 14.5 7.77734 13.8039 7.77734 12.9444V9.83333ZM1.55469 9.83331H4.6658V12.9444H1.55469V9.83331ZM12.4451 9.83331H9.33398V12.9444H12.4451V9.83331Z" fill="#C7C8D6"/>
</svg>
