<svg width="28" height="40" viewBox="0 0 28 40" fill="none" xmlns="http://www.w3.org/2000/svg">
<path fill-rule="evenodd" clip-rule="evenodd" d="M0 1.00042C0 0.447903 0.439813 0 0.996535 0H27.0035C27.5538 0 28 0.455173 28 1.00042V34.5858C28 34.851 27.8946 35.1054 27.7071 35.2929L23.2929 39.7071C23.1054 39.8946 22.851 40 22.5858 40H0.996535C0.446164 40 0 39.5448 0 38.9996C0 22 0 18 0 1.00042Z" fill="#E9E9EE"/>
<path d="M12.7499 17.125C12.7499 17.9538 12.4207 18.7487 11.8347 19.3347C11.2486 19.9208 10.4537 20.25 9.62494 20.25C8.79614 20.25 8.00128 19.9208 7.41523 19.3347C6.82918 18.7487 6.49994 17.9538 6.49994 17.125C6.49994 16.2962 6.82918 15.5013 7.41523 14.9153C8.00128 14.3292 8.79614 14 9.62494 14C10.4537 14 11.2486 14.3292 11.8347 14.9153C12.4207 15.5013 12.7499 16.2962 12.7499 17.125V17.125ZM18.0312 22.1912C17.914 22.1325 17.7812 22.1122 17.6518 22.133C17.5224 22.1539 17.4028 22.2149 17.3099 22.3075L12.6724 28.195L9.34744 24.73C9.22739 24.6501 9.08339 24.6141 8.93986 24.6283C8.79634 24.6424 8.66211 24.7057 8.55994 24.8075L4.00244 30.25V32.75C4.00244 33.0815 4.13414 33.3995 4.36856 33.6339C4.60298 33.8683 4.92092 34 5.25244 34H22.7524C22.9166 34 23.0791 33.9677 23.2308 33.9048C23.3825 33.842 23.5203 33.75 23.6363 33.6339C23.7524 33.5178 23.8445 33.38 23.9073 33.2284C23.9701 33.0767 24.0024 32.9142 24.0024 32.75V27.125L18.0312 22.1912V22.1912Z" fill="white"/>
</svg>
