<svg width="16" height="17" viewBox="0 0 16 17" fill="none" xmlns="http://www.w3.org/2000/svg">
<path fill-rule="evenodd" clip-rule="evenodd" d="M1 3C1 1.89543 1.89543 1 3 1H13C14.1046 1 15 1.89543 15 3V13C15 14.1046 14.1046 15 13 15H3C1.89543 15 1 14.1046 1 13V3Z" stroke="#7B7F92" stroke-width="2" stroke-linecap="round" stroke-linejoin="round"/>
<path d="M2 13.0711L5.51472 9L10.0711 15.0711" stroke="#7B7F92" stroke-width="2" stroke-linecap="round" stroke-linejoin="round"/>
<path fill-rule="evenodd" clip-rule="evenodd" d="M10 8C8.89513 8 8 7.1047 8 6C8 4.8953 8.89513 4 10 4C11.1043 4 12 4.8953 12 6C12 7.1047 11.1043 8 10 8Z" stroke="#7B7F92" stroke-width="2" stroke-linecap="round" stroke-linejoin="round"/>
</svg>
