<svg width="14" height="12" viewBox="0 0 14 12" fill="none" xmlns="http://www.w3.org/2000/svg">
<path opacity="0.982379" fill-rule="evenodd" clip-rule="evenodd" d="M0.790975 1.97135L4.68684 0.638017C4.82424 0.591351 4.98644 0.592684 5.12431 0.638017L8.93664 1.90934L12.7913 0.638017C13.222 0.496684 13.666 0.809343 13.666 1.26334V9.26338C13.666 9.55005 13.48 9.79731 13.208 9.88865L9.20797 11.222C9.07064 11.2673 8.92797 11.2673 8.79131 11.222L4.99931 9.95071L1.20764 11.222C0.775975 11.3653 0.332642 11.052 0.332642 10.5967V2.59668C0.332642 2.31134 0.520975 2.06402 0.790975 1.97135ZM4.33264 8.78405V2.15934L1.66597 3.07601V9.68005L4.33264 8.78405ZM12.3326 2.18001V8.78405L9.66597 9.68005V3.05533L12.3326 2.18001ZM8.33264 3.09667L5.66597 2.20068V8.78405L8.33264 9.68005V3.09667Z" fill="#262523"/>
</svg>
