<svg width="163" height="16" viewBox="0 0 163 16" fill="none" xmlns="http://www.w3.org/2000/svg">
<path d="M8.32 9.8H12.34C12.22 10.2267 12.0467 10.62 11.82 10.98C11.5933 11.34 11.3133 11.66 10.98 11.94C10.66 12.22 10.2733 12.44 9.82 12.6C9.36667 12.7467 8.85333 12.82 8.28 12.82C7.41333 12.82 6.63333 12.62 5.94 12.22C5.26 11.82 4.72 11.26 4.32 10.54C3.92 9.80667 3.72 8.96 3.72 8C3.72 7.02667 3.92 6.18667 4.32 5.48C4.73333 4.77333 5.28667 4.23333 5.98 3.86C6.67333 3.47333 7.44 3.28 8.28 3.28C9.17333 3.28 9.92667 3.47333 10.54 3.86C11.1667 4.23333 11.6533 4.72667 12 5.34L14.44 3.92C14.0133 3.26667 13.5 2.70667 12.9 2.24C12.3133 1.76 11.6333 1.38667 10.86 1.12C10.1 0.853333 9.24 0.719999 8.28 0.719999C7.2 0.719999 6.2 0.893333 5.28 1.24C4.36 1.58667 3.56 2.08 2.88 2.72C2.2 3.36 1.66667 4.13333 1.28 5.04C0.906667 5.93333 0.72 6.92 0.72 8C0.72 9.08 0.9 10.0733 1.26 10.98C1.63333 11.8867 2.15333 12.6667 2.82 13.32C3.5 13.9733 4.29333 14.48 5.2 14.84C6.12 15.2 7.12 15.38 8.2 15.38C9.34667 15.38 10.3667 15.1733 11.26 14.76C12.1533 14.3467 12.9 13.78 13.5 13.06C14.1133 12.3267 14.56 11.4867 14.84 10.54C15.1333 9.59333 15.26 8.58667 15.22 7.52H8.32V9.8ZM21.3352 8.48L25.5352 15H28.9152L24.3552 8.48H21.3352ZM18.1552 0.999999V15H21.0152V0.999999H18.1552ZM19.8952 3.44H22.6752C23.1818 3.44 23.6152 3.52667 23.9752 3.7C24.3485 3.86 24.6352 4.1 24.8352 4.42C25.0352 4.72667 25.1352 5.1 25.1352 5.54C25.1352 5.98 25.0352 6.36 24.8352 6.68C24.6352 6.98667 24.3485 7.22667 23.9752 7.4C23.6152 7.56 23.1818 7.64 22.6752 7.64H19.8952V9.92H22.8552C23.9618 9.92 24.9018 9.73333 25.6752 9.36C26.4485 8.98667 27.0418 8.46667 27.4552 7.8C27.8685 7.12 28.0752 6.34 28.0752 5.46C28.0752 4.56667 27.8685 3.78667 27.4552 3.12C27.0418 2.45333 26.4485 1.93333 25.6752 1.56C24.9018 1.18667 23.9618 0.999999 22.8552 0.999999H19.8952V3.44ZM33.3775 8C33.3775 7.10667 33.5642 6.31333 33.9375 5.62C34.3108 4.92667 34.8242 4.38 35.4775 3.98C36.1308 3.58 36.8908 3.38 37.7575 3.38C38.6375 3.38 39.4042 3.58 40.0575 3.98C40.7108 4.38 41.2175 4.92667 41.5775 5.62C41.9375 6.31333 42.1175 7.10667 42.1175 8C42.1175 8.89333 41.9308 9.68667 41.5575 10.38C41.1975 11.0733 40.6908 11.62 40.0375 12.02C39.3842 12.42 38.6242 12.62 37.7575 12.62C36.8908 12.62 36.1308 12.42 35.4775 12.02C34.8242 11.62 34.3108 11.0733 33.9375 10.38C33.5642 9.68667 33.3775 8.89333 33.3775 8ZM30.3575 8C30.3575 9.05333 30.5375 10.0333 30.8975 10.94C31.2575 11.8333 31.7708 12.6133 32.4375 13.28C33.1042 13.9467 33.8842 14.4667 34.7775 14.84C35.6842 15.2 36.6775 15.38 37.7575 15.38C38.8375 15.38 39.8242 15.2 40.7175 14.84C41.6242 14.4667 42.4042 13.9467 43.0575 13.28C43.7242 12.6133 44.2375 11.8333 44.5975 10.94C44.9708 10.0333 45.1575 9.05333 45.1575 8C45.1575 6.93333 44.9708 5.96 44.5975 5.08C44.2375 4.18667 43.7175 3.41333 43.0375 2.76C42.3708 2.10667 41.5908 1.60667 40.6975 1.26C39.8042 0.899999 38.8242 0.719999 37.7575 0.719999C36.7042 0.719999 35.7242 0.899999 34.8175 1.26C33.9242 1.60667 33.1442 2.10667 32.4775 2.76C31.8108 3.41333 31.2908 4.18667 30.9175 5.08C30.5442 5.96 30.3575 6.93333 30.3575 8ZM47.8684 0.999999V10.4C47.8684 11.2267 48.0018 11.9533 48.2684 12.58C48.5351 13.2067 48.9084 13.7333 49.3884 14.16C49.8684 14.5867 50.4351 14.9067 51.0884 15.12C51.7418 15.3467 52.4551 15.46 53.2284 15.46C53.9884 15.46 54.6951 15.3467 55.3484 15.12C56.0018 14.9067 56.5684 14.5867 57.0484 14.16C57.5418 13.7333 57.9218 13.2067 58.1884 12.58C58.4551 11.9533 58.5884 11.2267 58.5884 10.4V0.999999H55.7284V10.22C55.7284 11.02 55.5151 11.6667 55.0884 12.16C54.6751 12.64 54.0551 12.88 53.2284 12.88C52.4018 12.88 51.7751 12.64 51.3484 12.16C50.9351 11.6667 50.7284 11.02 50.7284 10.22V0.999999H47.8684ZM72.0636 0.999999V9.68L62.1036 0.3V15H64.8636V6.32L74.8236 15.7V0.999999H72.0636ZM78.4653 0.999999V15H81.3853V0.999999H78.4653ZM83.2253 15C84.692 15 85.972 14.7133 87.0653 14.14C88.172 13.5667 89.032 12.76 89.6453 11.72C90.2586 10.6667 90.5653 9.42667 90.5653 8C90.5653 6.57333 90.2586 5.34 89.6453 4.3C89.032 3.24667 88.172 2.43333 87.0653 1.86C85.972 1.28667 84.692 0.999999 83.2253 0.999999H80.3053V3.6H83.1253C83.7386 3.6 84.3186 3.68667 84.8653 3.86C85.412 4.02 85.892 4.28 86.3053 4.64C86.7186 5 87.0386 5.46 87.2653 6.02C87.5053 6.56667 87.6253 7.22667 87.6253 8C87.6253 8.77333 87.5053 9.44 87.2653 10C87.0386 10.5467 86.7186 11 86.3053 11.36C85.892 11.72 85.412 11.9867 84.8653 12.16C84.3186 12.32 83.7386 12.4 83.1253 12.4H80.3053V15H83.2253ZM112.818 9.7L108.878 0.3L104.978 9.7L101.938 0.999999H98.5778L104.458 15.78L108.878 6.58L113.278 15.78L119.178 0.999999H115.818L112.818 9.7ZM123.325 8C123.325 7.10667 123.512 6.31333 123.885 5.62C124.258 4.92667 124.772 4.38 125.425 3.98C126.078 3.58 126.838 3.38 127.705 3.38C128.585 3.38 129.352 3.58 130.005 3.98C130.658 4.38 131.165 4.92667 131.525 5.62C131.885 6.31333 132.065 7.10667 132.065 8C132.065 8.89333 131.878 9.68667 131.505 10.38C131.145 11.0733 130.638 11.62 129.985 12.02C129.332 12.42 128.572 12.62 127.705 12.62C126.838 12.62 126.078 12.42 125.425 12.02C124.772 11.62 124.258 11.0733 123.885 10.38C123.512 9.68667 123.325 8.89333 123.325 8ZM120.305 8C120.305 9.05333 120.485 10.0333 120.845 10.94C121.205 11.8333 121.718 12.6133 122.385 13.28C123.052 13.9467 123.832 14.4667 124.725 14.84C125.632 15.2 126.625 15.38 127.705 15.38C128.785 15.38 129.772 15.2 130.665 14.84C131.572 14.4667 132.352 13.9467 133.005 13.28C133.672 12.6133 134.185 11.8333 134.545 10.94C134.918 10.0333 135.105 9.05333 135.105 8C135.105 6.93333 134.918 5.96 134.545 5.08C134.185 4.18667 133.665 3.41333 132.985 2.76C132.318 2.10667 131.538 1.60667 130.645 1.26C129.752 0.899999 128.772 0.719999 127.705 0.719999C126.652 0.719999 125.672 0.899999 124.765 1.26C123.872 1.60667 123.092 2.10667 122.425 2.76C121.758 3.41333 121.238 4.18667 120.865 5.08C120.492 5.96 120.305 6.93333 120.305 8ZM141.096 8.48L145.296 15H148.676L144.116 8.48H141.096ZM137.916 0.999999V15H140.776V0.999999H137.916ZM139.656 3.44H142.436C142.943 3.44 143.376 3.52667 143.736 3.7C144.109 3.86 144.396 4.1 144.596 4.42C144.796 4.72667 144.896 5.1 144.896 5.54C144.896 5.98 144.796 6.36 144.596 6.68C144.396 6.98667 144.109 7.22667 143.736 7.4C143.376 7.56 142.943 7.64 142.436 7.64H139.656V9.92H142.616C143.723 9.92 144.663 9.73333 145.436 9.36C146.209 8.98667 146.803 8.46667 147.216 7.8C147.629 7.12 147.836 6.34 147.836 5.46C147.836 4.56667 147.629 3.78667 147.216 3.12C146.803 2.45333 146.209 1.93333 145.436 1.56C144.663 1.18667 143.723 0.999999 142.616 0.999999H139.656V3.44ZM150.918 0.999999V15H153.858V0.999999H150.918ZM158.838 0.999999L153.018 7.64L159.058 15H162.538L156.438 7.56L162.238 0.999999H158.838Z" fill="#2D365C"/>
</svg>
