<svg width="36" height="31" viewBox="0 0 36 31" fill="none" xmlns="http://www.w3.org/2000/svg">
<path fill-rule="evenodd" clip-rule="evenodd" d="M9.92198 30.1221C11.4811 30.479 12.9248 30.0358 14.0781 28.8464C14.7255 28.1788 15.6401 27.6523 16.5317 27.434C17.26 27.2557 17.8599 27.2628 18.9344 27.4627C19.5344 27.5742 20.6871 28.3497 21.4424 29.1501C22.6842 30.4659 23.9911 30.9351 25.5937 30.6407C26.4624 30.4812 27.3284 29.9814 27.967 29.2712C29.7771 27.2581 29.11 23.8968 26.6617 22.6946C25.7295 22.2369 25.0138 22.1474 23.9317 22.3535C22.9863 22.5335 22.4008 22.8477 21.6526 23.5763C19.9328 25.251 17.8129 25.6469 15.8549 24.6589C15.2527 24.3551 14.8453 24.0167 14.0816 23.1864C13.1259 22.1473 11.7739 21.632 10.422 21.7919C8.99969 21.9601 8.1213 22.5379 7.30718 23.8407C6.84462 24.581 6.80071 24.7029 6.71395 25.4893C6.56116 26.8729 6.91877 27.94 7.8795 28.9666C8.42176 29.546 9.11245 29.9368 9.92198 30.1221ZM3.63959 19C4.29356 19.2484 5.06918 19.2908 5.84862 19.1209C6.66443 18.943 7.3533 18.5369 8.14742 17.7655C8.79974 17.1317 9.41991 16.7721 10.1911 16.5802C12.0544 16.1166 13.5507 16.6357 15.1442 18.2983C15.8428 19.0274 15.9445 19.1029 16.5706 19.3577C18.6879 20.2193 21.1524 19.2459 21.9271 17.2421C22.4817 15.8071 22.2715 14.3209 21.3434 13.1157C21.095 12.7932 20.8344 12.5935 20.1591 12.2082C19.1011 11.6045 18.3678 11.482 17.2943 11.7296C16.5896 11.892 15.4759 12.5077 15.2591 12.8547C15.1234 13.0719 14.2517 13.7453 13.8355 13.9545C13.2098 14.2689 12.0614 14.4695 11.3406 14.3904C10.2756 14.2734 9.37251 13.8594 8.66455 13.1634C8.35592 12.8599 7.93434 12.4473 7.72768 12.2464C6.79366 11.3383 5.40533 10.9624 4.09738 11.2634C3.04349 11.5061 2.01821 12.2018 1.50547 13.0224C0.992188 13.8438 0.81657 15.0714 1.06201 16.1211C1.37541 17.4609 2.29704 18.4903 3.63959 19ZM10.3454 8.63711C10.9847 8.85465 11.4337 8.93592 11.973 8.93196C13.0907 8.92359 13.9446 8.55935 14.859 7.7005C15.7457 6.86772 16.4085 6.49113 17.3698 6.27406C18.3634 6.04971 19.1765 6.11763 20.1524 6.50655C20.8843 6.79823 21.447 7.23896 22.108 8.03809C22.7604 8.82688 24.1822 9.46144 25.1974 9.41693C27.3555 9.32213 28.998 7.79279 29.185 5.70416C29.2418 5.06997 28.9833 3.84547 28.7013 3.41283C28.6014 3.25975 28.4749 3.06062 28.4202 2.97025C28.3653 2.87997 28.0906 2.59591 27.8097 2.339C26.8887 1.4971 25.5684 1.17281 24.2473 1.46413C23.371 1.65743 22.7919 1.99347 22.0481 2.74039C20.892 3.90139 19.3378 4.36762 17.7273 4.03651C16.9571 3.87815 15.7153 3.12672 15.2456 2.53479C15.0598 2.3006 14.6065 1.89528 14.2383 1.63405C12.7115 0.551214 10.8102 0.620377 9.35474 1.81171C7.66019 3.19868 7.42646 5.72182 8.8291 7.48729C9.09032 7.81615 10.0326 8.53075 10.3454 8.63711ZM30.1118 19.9245C31.3476 20.3344 32.7673 20.1763 33.7745 19.5166C34.2542 19.2024 34.386 19.0524 34.8882 18.2486C35.3871 17.4503 35.4677 17.2588 35.5374 16.7076C35.7447 15.0672 35.0318 13.5955 33.6021 12.7118C32.0921 11.7786 30.2875 11.9115 28.9147 13.057C27.9121 13.8936 27.3802 15.1772 27.4929 16.4882C27.5802 17.5029 27.9346 18.2255 28.7634 19.0783C29.2494 19.5784 29.4522 19.7057 30.1118 19.9245Z" fill="#2D365C"/>
</svg>
