<svg width="32" height="32" viewBox="0 0 32 32" fill="none" xmlns="http://www.w3.org/2000/svg">
<path fill-rule="evenodd" clip-rule="evenodd" d="M16.6619 31.5115C18.2164 31.0131 19.2342 29.9269 19.5919 28.3848C19.7927 27.5192 20.3034 26.6328 20.9623 26.0067C21.5003 25.4953 22.0274 25.1985 23.0737 24.8178C23.6579 24.6051 25.086 24.6497 26.1811 24.9148C27.9815 25.3507 29.3772 25.0702 30.6146 24.024C31.2855 23.4569 31.7684 22.6166 31.9384 21.7211C32.4201 19.1826 30.0061 16.8054 27.2151 17.0699C26.1526 17.1707 25.4795 17.4595 24.6479 18.1718C23.9214 18.7941 23.5819 19.3431 23.3264 20.3088C22.7391 22.5285 21.1058 23.9176 18.8593 24.1077C18.1685 24.1662 17.6286 24.0986 16.5099 23.8135C15.1099 23.4566 13.6497 23.7227 12.5575 24.5338C11.4086 25.3872 10.9574 26.2968 10.9574 27.7594C10.9574 28.5904 10.9855 28.7109 11.3384 29.3896C11.9593 30.5837 12.8529 31.2648 14.2505 31.609C15.0393 31.8032 15.8548 31.7703 16.6619 31.5115ZM5.11972 25.7015C5.82552 25.572 6.52521 25.215 7.11248 24.6846C7.72715 24.1295 8.10665 23.454 8.3789 22.4306C8.60247 21.5899 8.94742 20.9867 9.51551 20.4427C10.8881 19.1284 12.4762 18.7926 14.7724 19.331C15.7792 19.5672 15.9091 19.5768 16.5941 19.4667C18.9106 19.0942 20.5298 17.065 20.1133 15.0564C19.815 13.6181 18.8215 12.5242 17.3551 12.0194C16.9626 11.8843 16.6264 11.8546 15.8274 11.8842C14.5755 11.9305 13.8691 12.2016 13.0676 12.943C12.5414 13.4297 11.9056 14.4886 11.9056 14.8781C11.9056 15.122 11.5123 16.1054 11.2632 16.4842C10.8889 17.0537 9.99648 17.7951 9.3246 18.0949C8.33191 18.5377 7.31846 18.659 6.32155 18.4542C5.88694 18.3649 5.2943 18.2445 5.00456 18.1866C3.69484 17.9246 2.27892 18.3215 1.30213 19.2244C0.515101 19.952 -9.43515e-07 21.0309 -8.6231e-07 21.9521C-7.81019e-07 22.8742 0.515945 23.9539 1.30213 24.6775C2.30579 25.6011 3.67082 25.9673 5.11972 25.7015ZM5.32064 13.952C5.99683 13.8051 6.43281 13.6442 6.90103 13.3689C7.87149 12.7983 8.41778 12.0734 8.74723 10.9188C9.06679 9.79907 9.43966 9.16067 10.1599 8.50044C10.9043 7.81808 11.6505 7.46272 12.7138 7.28436C13.5112 7.15063 14.2422 7.22256 15.2544 7.53426C16.2534 7.84196 17.8395 7.63699 18.7007 7.08894C20.5315 5.92364 21.1307 3.86029 20.1554 2.07969C19.8593 1.53905 18.9663 0.68086 18.4845 0.473842C18.3139 0.400645 18.0951 0.303666 17.9981 0.258346C17.901 0.213121 17.5066 0.122381 17.1215 0.0566896C15.8593 -0.158417 14.5308 0.245872 13.5373 1.14753C12.8783 1.74567 12.5563 2.30912 12.3146 3.28739C11.939 4.80795 10.8373 5.96848 9.25211 6.5136C8.49395 6.77432 7.00122 6.7941 6.26887 6.55317C5.97913 6.45785 5.36278 6.35931 4.8992 6.33417C2.97724 6.23017 1.3565 7.24518 0.73625 8.94128C0.0141183 10.9159 1.1855 13.0709 3.37128 13.7886C3.77839 13.9224 4.98981 14.0239 5.32064 13.952ZM28.7147 13.0929C30.0161 12.8004 31.1683 11.9566 31.6873 10.9158C31.9345 10.4201 31.9677 10.2326 31.9677 9.33026C31.9677 8.43406 31.9336 8.23874 31.6939 7.75863C30.9806 6.32968 29.5566 5.50112 27.8279 5.50892C26.0021 5.5173 24.5004 6.53504 23.9274 8.15239C23.5088 9.33367 23.7445 10.6382 24.5573 11.6398C25.1865 12.415 25.8896 12.8196 27.0773 13.09C27.7738 13.2486 28.0202 13.2491 28.7147 13.0929Z" fill="#3D88E7"/>
</svg>
