<svg width="36" height="31" viewBox="0 0 36 31" fill="none" xmlns="http://www.w3.org/2000/svg">
<path fill-rule="evenodd" clip-rule="evenodd" d="M9.92187 30.1222C11.481 30.479 12.9247 30.0358 14.078 28.8464C14.7254 28.1788 15.6399 27.6523 16.5316 27.4341C17.2599 27.2557 17.8597 27.2628 18.9343 27.4627C19.5343 27.5743 20.687 28.3498 21.4423 29.1502C22.6841 30.466 23.9909 30.9352 25.5936 30.6408C26.4623 30.4812 27.3282 29.9815 27.9668 29.2713C29.777 27.2582 29.1099 23.8969 26.6615 22.6946C25.7294 22.237 25.0137 22.1475 23.9316 22.3536C22.9862 22.5336 22.4007 22.8478 21.6525 23.5764C19.9327 25.2511 17.8128 25.647 15.8548 24.659C15.2526 24.3552 14.8452 24.0168 14.0815 23.1865C13.1258 22.1473 11.7738 21.6321 10.4219 21.7919C8.99958 21.9601 8.12118 22.5379 7.30707 23.8408C6.84451 24.581 6.8006 24.7029 6.71384 25.4893C6.56105 26.8729 6.91866 27.94 7.87939 28.9666C8.42165 29.5461 9.11234 29.9369 9.92187 30.1222ZM3.63948 19.0001C4.29345 19.2484 5.06907 19.2909 5.84851 19.1209C6.66432 18.9431 7.35319 18.5369 8.14731 17.7655C8.79963 17.1318 9.4198 16.7722 10.191 16.5803C12.0543 16.1167 13.5505 16.6357 15.144 18.2984C15.8427 19.0274 15.9444 19.103 16.5705 19.3577C18.6878 20.2194 21.1522 19.246 21.9269 17.2421C22.4816 15.8072 22.2713 14.3209 21.3433 13.1158C21.0949 12.7933 20.8343 12.5936 20.159 12.2082C19.101 11.6046 18.3677 11.4821 17.2942 11.7296C16.5895 11.892 15.4758 12.5078 15.259 12.8547C15.1233 13.072 14.2516 13.7454 13.8353 13.9545C13.2097 14.269 12.0613 14.4696 11.3405 14.3905C10.2755 14.2735 9.3724 13.8594 8.66444 13.1634C8.35581 12.86 7.93423 12.4473 7.72757 12.2465C6.79355 11.3384 5.40522 10.9624 4.09727 11.2635C3.04337 11.5061 2.0181 12.2019 1.50536 13.0224C0.992077 13.8439 0.81646 15.0715 1.06189 16.1211C1.3753 17.4609 2.29693 18.4904 3.63948 19.0001ZM10.3453 8.63718C10.9846 8.85471 11.4336 8.93598 11.9728 8.93202C13.0906 8.92366 13.9445 8.55941 14.8589 7.70056C15.7456 6.86778 16.4084 6.49119 17.3697 6.27412C18.3633 6.04977 19.1763 6.11769 20.1523 6.50661C20.8841 6.79829 21.4469 7.23902 22.1079 8.03815C22.7603 8.82694 24.1821 9.4615 25.1972 9.41699C27.3554 9.32219 28.9979 7.79286 29.1849 5.70422C29.2417 5.07003 28.9832 3.84553 28.7012 3.41289C28.6013 3.25981 28.4748 3.06068 28.4201 2.97031C28.3652 2.88003 28.0905 2.59598 27.8096 2.33906C26.8886 1.49716 25.5683 1.17287 24.2472 1.46419C23.3709 1.65749 22.7918 1.99353 22.048 2.74045C20.8919 3.90145 19.3377 4.36768 17.7272 4.03657C16.957 3.87821 15.7152 3.12678 15.2455 2.53485C15.0597 2.30066 14.6064 1.89534 14.2381 1.63411C12.7114 0.551275 10.8101 0.620438 9.35462 1.81177C7.66008 3.19875 7.42635 5.72188 8.82899 7.48735C9.09021 7.81621 10.0325 8.53081 10.3453 8.63718ZM30.1117 19.9245C31.3475 20.3344 32.7672 20.1764 33.7744 19.5167C34.2541 19.2024 34.3858 19.0525 34.8881 18.2487C35.387 17.4503 35.4676 17.2588 35.5373 16.7076C35.7446 15.0673 35.0317 13.5955 33.602 12.7118C32.092 11.7787 30.2874 11.9116 28.9146 13.0571C27.912 13.8937 27.3801 15.1773 27.4928 16.4882C27.58 17.503 27.9345 18.2256 28.7633 19.0783C29.2493 19.5784 29.4521 19.7058 30.1117 19.9245Z" fill="white"/>
</svg>
