<svg width="17" height="17" viewBox="0 0 17 17" fill="none" xmlns="http://www.w3.org/2000/svg">
<path fill-rule="evenodd" clip-rule="evenodd" d="M0 7.58711C0 3.67326 3.17326 0.5 7.08711 0.5C11.0009 0.5 14.1742 3.67326 14.1742 7.58711C14.1742 9.21446 13.6019 10.7364 12.6797 11.9324L15.7524 14.9785C16.0979 15.3248 16.0979 15.906 15.7524 16.2524C15.406 16.5979 14.8248 16.5979 14.4785 16.2524L11.4377 13.177C10.2408 14.0992 8.71446 14.6742 7.08711 14.6742C3.17326 14.6742 0 11.5009 0 7.58711ZM12.4021 7.58712C12.4021 4.65128 10.0226 2.27179 7.08682 2.27179C4.15099 2.27179 1.77148 4.65128 1.77148 7.58712C1.77148 10.5229 4.15099 12.9024 7.08682 12.9024C10.0226 12.9024 12.4021 10.5229 12.4021 7.58712Z" fill="black"/>
</svg>
