<svg width="32" height="35" viewBox="0 0 32 35" fill="none" xmlns="http://www.w3.org/2000/svg">
<path fill-rule="evenodd" clip-rule="evenodd" d="M17.5556 33.8705C17.6777 33.9417 17.8146 33.9773 17.9515 33.9773L17.9511 33.9773C18.0779 33.9773 18.2047 33.9467 18.3201 33.8854C18.5601 33.7579 18.7157 33.5156 18.7304 33.2462L20.2914 4.65492C20.3104 4.31077 20.0966 3.99588 19.7677 3.883C19.4388 3.77013 19.0739 3.88659 18.8738 4.16836L4.04453 25.032C3.91909 25.2083 3.87393 25.4288 3.91993 25.64C3.96592 25.8511 4.09916 26.0335 4.28704 26.1428L17.5556 33.8705ZM17.2413 31.8946L5.80882 25.2364L18.5863 7.25901L17.2413 31.8946Z" fill="#262523"/>
<path fill-rule="evenodd" clip-rule="evenodd" d="M30.4386 26.2503H30.4403L30.4403 26.2505C30.8712 26.2505 31.2208 25.9044 31.2208 25.4777C31.2208 25.3425 31.1859 25.2155 31.1243 25.1051L24.901 12.0123C24.7274 11.6472 24.2995 11.4755 23.9179 11.6188L1.28336 20.1186C1.06092 20.202 0.889205 20.3811 0.816732 20.6052C0.744259 20.8293 0.778819 21.0741 0.91067 21.2697L4.03265 25.9061C4.1776 26.1211 4.42123 26.2503 4.68214 26.2503H30.4386ZM29.2089 24.7049H5.10005L2.7536 21.2197L23.7961 13.3175L29.2089 24.7049Z" fill="#262523"/>
<path fill-rule="evenodd" clip-rule="evenodd" d="M1.04926 21.425C1.19366 21.5486 1.37568 21.6135 1.56021 21.6135V21.6129C1.65331 21.6129 1.74725 21.5964 1.83701 21.5627L24.4715 13.0628C24.7868 12.9444 24.9895 12.6392 24.9744 12.3058C24.9593 11.9724 24.7299 11.6862 24.4052 11.5962L4.89264 6.18715C4.68609 6.12975 4.46476 6.15927 4.28107 6.26829C4.0971 6.37729 3.96664 6.5564 3.92009 6.76366L0.798111 20.6732C0.73595 20.9503 0.832392 21.2393 1.04926 21.425ZM2.63614 19.6106L5.26559 7.89614L21.6991 12.4516L2.63614 19.6106Z" fill="#262523"/>
<path fill-rule="evenodd" clip-rule="evenodd" d="M27.3169 32.4319C27.3169 33.7102 28.3672 34.7501 29.6583 34.7501C30.9495 34.7501 31.9998 33.7102 31.9998 32.4319C31.9998 31.1537 30.9495 30.1138 29.6583 30.1138C28.3672 30.1138 27.3169 31.1537 27.3169 32.4319ZM28.8781 32.4318C28.8781 32.0057 29.2282 31.6591 29.6586 31.6591C30.089 31.6591 30.4391 32.0057 30.4391 32.4318C30.4391 32.858 30.089 33.2046 29.6586 33.2046C29.2282 33.2046 28.8781 32.858 28.8781 32.4318Z" fill="#262523"/>
<path fill-rule="evenodd" clip-rule="evenodd" d="M8.58496 3.06841C8.58496 4.34668 9.63523 5.38657 10.9264 5.38657C12.2175 5.38657 13.2679 4.34668 13.2679 3.06841C13.2679 1.79014 12.2175 0.750244 10.9264 0.750244C9.6353 0.750244 8.58496 1.79014 8.58496 3.06841ZM10.1461 3.06837C10.1461 2.64223 10.4963 2.29561 10.9266 2.29561C11.3571 2.29561 11.7072 2.64223 11.7072 3.06837C11.7072 3.49452 11.3571 3.84114 10.9266 3.84114C10.4962 3.84114 10.1461 3.49452 10.1461 3.06837Z" fill="#262523"/>
<path d="M25.7553 23.9322C25.5502 23.9322 25.3487 23.8494 25.2034 23.7056C25.0582 23.5618 24.9749 23.3626 24.9749 23.1595C24.9749 22.9563 25.0582 22.7568 25.2034 22.613C25.3487 22.4695 25.5502 22.3867 25.7553 22.3867C25.9605 22.3867 26.162 22.4692 26.307 22.613C26.4522 22.7568 26.5358 22.9561 26.5358 23.1595C26.5358 23.3626 26.4522 23.5621 26.307 23.7056C26.162 23.8494 25.9605 23.9322 25.7553 23.9322Z" fill="#262523"/>
<path d="M23.4148 23.9322C23.2096 23.9322 23.0081 23.8494 22.8628 23.7056C22.7176 23.5618 22.6343 23.3626 22.6343 23.1595C22.6343 22.9563 22.7176 22.7568 22.8628 22.613C23.0081 22.4695 23.2096 22.3867 23.4148 22.3867C23.6199 22.3867 23.8215 22.4692 23.9664 22.613C24.1116 22.7568 24.1953 22.9561 24.1953 23.1595C24.1953 23.3626 24.1116 23.5621 23.9664 23.7056C23.8215 23.8494 23.6199 23.9322 23.4148 23.9322Z" fill="#262523"/>
<path d="M21.0732 23.9322C20.8681 23.9322 20.6665 23.8494 20.5213 23.7056C20.3761 23.5618 20.2927 23.3626 20.2927 23.1595C20.2927 22.9563 20.3761 22.7568 20.5213 22.613C20.6665 22.4692 20.8669 22.3867 21.0732 22.3867C21.2784 22.3867 21.4799 22.4692 21.6249 22.613C21.7701 22.7568 21.8537 22.9561 21.8537 23.1595C21.8537 23.3626 21.7701 23.5621 21.6249 23.7056C21.4799 23.8494 21.2784 23.9322 21.0732 23.9322Z" fill="#262523"/>
<path d="M21.0732 21.6133C20.8681 21.6133 20.6665 21.5305 20.5213 21.3868C20.3761 21.243 20.2927 21.0437 20.2927 20.8406C20.2927 20.6375 20.3761 20.438 20.5213 20.2942C20.6665 20.1507 20.8681 20.0679 21.0732 20.0679C21.2784 20.0679 21.4799 20.1504 21.6249 20.2942C21.7701 20.438 21.8537 20.6372 21.8537 20.8406C21.8537 21.0437 21.7701 21.2433 21.6249 21.3868C21.4799 21.5306 21.2784 21.6133 21.0732 21.6133Z" fill="#262523"/>
<path d="M21.0732 19.2955C20.8681 19.2955 20.6665 19.2127 20.5213 19.0689C20.3761 18.9251 20.2927 18.7259 20.2927 18.5227C20.2927 18.3196 20.3761 18.1201 20.5213 17.9763C20.6665 17.8328 20.8681 17.75 21.0732 17.75C21.2784 17.75 21.4799 17.8325 21.6249 17.9763C21.7701 18.1201 21.8537 18.3193 21.8537 18.5227C21.8537 18.7259 21.7701 18.9254 21.6249 19.0689C21.4799 19.2127 21.2784 19.2955 21.0732 19.2955Z" fill="#262523"/>
<path d="M0 31.6593H1.56099V33.2048H0V31.6593Z" fill="#262523"/>
<path d="M2.34155 31.6593H3.90254V33.2048H2.34155V31.6593Z" fill="#262523"/>
<path d="M4.68262 31.6593H6.24361V33.2048H4.68262V31.6593Z" fill="#262523"/>
<path d="M7.02417 31.6593H8.58516V33.2048H7.02417V31.6593Z" fill="#262523"/>
</svg>
