<svg width="14" height="14" viewBox="0 0 14 14" fill="none" xmlns="http://www.w3.org/2000/svg">
<path fill-rule="evenodd" clip-rule="evenodd" d="M9.85092 0.488119C9.97625 0.363452 10.1536 0.300781 10.3303 0.300781C11.4516 0.300781 12.2289 0.582107 12.8109 1.17611C13.3876 1.76477 13.6656 2.54478 13.6656 3.63611C13.6656 3.81278 13.6029 3.99011 13.4783 4.11545C13.294 4.29938 12.8717 4.72172 12.457 5.13634L12.4496 5.14378L12.4493 5.14411L12.4469 5.14643L12.4411 5.15225C12.0273 5.56613 11.6242 5.96917 11.4769 6.11614L5.47356 12.1195L4.80689 12.7868C4.71356 12.8794 4.58155 12.9274 4.45222 12.9534L4.06998 13.0299L4.06678 13.0305C3.22741 13.1983 1.46153 13.5514 1.11689 13.6208C0.650225 13.7134 0.252888 13.3161 0.346221 12.8494L1.01289 9.51411C1.03889 9.38478 1.08689 9.25285 1.17955 9.15952L1.84689 8.49278L7.85019 2.48947C8.12703 2.212 9.31194 1.02709 9.7674 0.571638L9.85092 0.488119ZM11.8523 2.09347C11.5849 1.82013 11.1949 1.68211 10.5929 1.64677C10.4224 1.81726 10.2221 2.02155 10.0122 2.23554L10.0121 2.23564L10.012 2.23571L10.0119 2.23584C9.77298 2.47948 9.52174 2.73566 9.28825 2.96879L10.9976 4.67811C11.2389 4.43684 11.5095 4.16868 11.7649 3.91551C11.9732 3.70907 12.1715 3.5126 12.3356 3.3488C12.2983 2.7588 12.1256 2.37213 11.8523 2.09347ZM8.32959 3.92745L10.0389 5.63681L4.99422 10.6814L3.28489 8.97211L8.32959 3.92745ZM4.03555 11.6401L2.32622 9.93078L2.26356 9.99345L1.82556 12.1408C2.29188 12.0474 2.78092 11.9468 3.19681 11.8613C3.51105 11.7967 3.78352 11.7407 3.97289 11.7028L4.03555 11.6401Z" fill="#262523"/>
</svg>
