<svg width="20" height="24" viewBox="0 0 20 24" fill="none" xmlns="http://www.w3.org/2000/svg">
<path d="M5.90247 7.40824L7.27444 6.14985C7.47526 5.96415 7.60564 5.71483 7.64326 5.44375C7.68088 5.17285 7.62335 4.89736 7.48061 4.66405L4.94537 0.558373C4.77332 0.279177 4.49246 0.0844461 4.17049 0.0217531C3.84851 -0.0411287 3.51509 0.0337399 3.25087 0.227922L1.50085 1.50751H1.50066C0.801739 2.0117 0.325264 2.76666 0.170891 3.61457C-0.225585 5.84593 -0.268002 10.4433 3.90646 16.1484C8.08092 21.8536 12.4748 23.2042 14.7219 23.5002H14.7218C14.8637 23.5205 15.0069 23.5301 15.1501 23.5294C15.8642 23.5266 16.5588 23.2959 17.1329 22.871L18.8829 21.5915C19.1475 21.3978 19.319 21.1022 19.3563 20.7764C19.3933 20.4507 19.2927 20.1241 19.0786 19.8757L15.9325 16.2195V16.2196C15.7542 16.0122 15.5089 15.8733 15.2393 15.827C14.9695 15.7806 14.6922 15.8298 14.4547 15.9657L12.8394 16.8911C12.6049 17.0301 12.3288 17.0825 12.0595 17.0392C11.1211 16.8752 9.25984 16.2143 7.36172 13.6182C5.46361 11.0221 5.39742 9.05261 5.52706 8.10613C5.56615 7.83671 5.69911 7.58943 5.90251 7.40834L5.90247 7.40824Z" fill="white"/>
</svg>
