<svg width="13" height="13" viewBox="0 0 13 13" fill="none" xmlns="http://www.w3.org/2000/svg">
<path d="M6.99377 0.453125C6.62577 0.453125 6.32711 0.751792 6.32711 1.11979V5.78646H1.66044C1.29244 5.78646 0.993774 6.08512 0.993774 6.45312C0.993774 6.82113 1.29244 7.11979 1.66044 7.11979H6.32711V11.7865C6.32711 12.1545 6.62577 12.4531 6.99377 12.4531C7.36177 12.4531 7.66044 12.1545 7.66044 11.7865V7.11979H12.3271C12.6951 7.11979 12.9938 6.82113 12.9938 6.45312C12.9938 6.08512 12.6951 5.78646 12.3271 5.78646H7.66044V1.11979C7.66044 0.751792 7.36177 0.453125 6.99377 0.453125Z" fill="#2D365C"/>
</svg>
