<svg width="15" height="13" viewBox="0 0 15 13" fill="none" xmlns="http://www.w3.org/2000/svg">
<path fill-rule="evenodd" clip-rule="evenodd" d="M3.77539 2.28614C4.82739 1.45348 6.13539 0.994141 7.50472 0.994141C10.8187 0.994141 13.5047 3.68014 13.5047 6.99413H14.8381L12.8381 9.6608L10.8381 6.99413H12.1714C12.1714 4.4168 10.0821 2.32747 7.50472 2.32747C6.43872 2.32747 5.42673 2.68014 4.60873 3.32747C4.32006 3.55614 3.90005 3.51213 3.67139 3.22346C3.44272 2.9348 3.48673 2.51414 3.77539 2.28614ZM0.171387 6.99413L2.17139 4.32747L4.17139 6.99413H2.83805C2.83805 9.57146 4.92739 11.6608 7.50472 11.6608C8.57139 11.6608 9.58205 11.3088 10.4007 10.6608C10.6894 10.4321 11.1094 10.4761 11.3381 10.7648C11.5667 11.0535 11.5227 11.4741 11.2341 11.7021C10.1821 12.5355 8.87472 12.9941 7.50472 12.9941C4.19072 12.9941 1.50472 10.3081 1.50472 6.99413H0.171387Z" fill="#262523"/>
</svg>
