<svg width="16" height="16" viewBox="0 0 16 16" fill="none" xmlns="http://www.w3.org/2000/svg">
<path fill-rule="evenodd" clip-rule="evenodd" d="M2.6 1.78606C3.4624 0.982862 4.4408 0.395662 5.5752 0.0356625C5.9208 -0.0739375 6.3056 0.0788625 6.5 0.386062C7.2592 1.58206 8.7024 1.56126 9.4752 0.360462C9.6688 0.0596625 10.0328 -0.0683375 10.3752 0.0356625C11.4896 0.374862 12.5528 0.994062 13.4248 1.78606C13.7016 2.03726 13.7592 2.43566 13.5752 2.76046C12.9136 3.92846 13.672 5.25806 15.0248 5.26046C15.3992 5.26126 15.7184 5.52046 15.8 5.88606C15.9288 6.46289 16 7.05729 16 7.66049C16 8.36289 15.9632 8.86209 15.8248 9.43569C15.7392 9.79009 15.4144 10.0293 15.0496 10.0357C13.6752 10.0597 12.9096 11.2925 13.5752 12.6357C13.7336 12.9557 13.664 13.3453 13.4 13.5861C12.5432 14.3669 11.5096 14.9613 10.4 15.3109C10.064 15.4165 9.6992 15.2765 9.5 14.9861C8.6552 13.7509 7.3648 13.7549 6.4752 14.9861C6.2736 15.2645 5.9032 15.3885 5.5752 15.2861C4.4256 14.9261 3.4496 14.3717 2.6 13.5861C2.3464 13.3509 2.28081 12.9749 2.42481 12.6605C3.07441 11.2461 2.3544 10.1365 0.9 10.0109C0.548 9.98049 0.2472 9.73169 0.1752 9.38609C0.0592 8.83249 0 8.21009 0 7.66049C0 7.00609 0.0568 6.50689 0.2 5.91087C0.2832 5.56607 0.596 5.30366 0.9496 5.28606C2.3952 5.21326 3.06561 3.94526 2.42481 2.76046C2.25201 2.44046 2.3336 2.03406 2.6 1.78606ZM11.9104 2.57807C11.4152 2.20287 10.984 1.96366 10.4376 1.73486C8.9912 3.28447 6.9192 3.14447 5.53921 1.74047C4.99121 1.96287 4.56961 2.21966 4.10081 2.57246C4.63121 4.39326 3.7896 6.28369 1.6536 6.79569C1.6008 7.10849 1.56401 8.13889 1.65601 8.50369C3.72161 9.02529 4.65202 10.7445 4.10162 12.7357C4.54562 13.1109 4.98481 13.3341 5.55601 13.5853C7.02 12.0525 9.0104 12.1165 10.444 13.5757C11.0544 13.3397 11.4024 13.0949 11.8888 12.7421C11.3232 10.7813 12.328 8.92609 14.3592 8.50529C14.4008 8.24123 14.4006 8.09881 14.4001 7.77842L14.4 7.66049L14.4001 7.57899C14.4004 7.28585 14.4006 7.09247 14.3544 6.78929C12.3144 6.32449 11.3296 4.41567 11.9104 2.57807ZM8 4.46046C6.2328 4.46046 4.8 5.89326 4.8 7.66049C4.8 9.42849 6.2328 10.8605 8 10.8605C9.7672 10.8605 11.2 9.42849 11.2 7.66049C11.2 5.89326 9.7672 4.46046 8 4.46046ZM9.6 7.66049C9.6 6.77729 8.884 6.06046 8 6.06046C7.116 6.06046 6.4 6.77729 6.4 7.66049C6.4 8.54449 7.116 9.26049 8 9.26049C8.884 9.26049 9.6 8.54449 9.6 7.66049Z" fill="#262523"/>
</svg>
