<svg width="16" height="16" viewBox="0 0 16 16" fill="none" xmlns="http://www.w3.org/2000/svg">
<path fill-rule="evenodd" clip-rule="evenodd" d="M0.498657 2.99219C0.498657 1.61144 1.61782 0.492188 2.99866 0.492188H6.33199C7.78616 0.492188 8.41783 1.12144 9.17032 2.6276C9.66699 3.62144 9.86949 3.82552 10.4987 3.82552H14.6653C15.1253 3.82552 15.4987 4.1986 15.4987 4.65885V12.1589C15.4987 13.9997 14.0062 15.4922 12.1653 15.4922H3.83199C1.99116 15.4922 0.498657 13.9997 0.498657 12.1589V4.65885V2.99219ZM6.33199 2.15885H2.99866C2.53866 2.15885 2.16532 2.53194 2.16532 2.99219V4.65885V12.1589C2.16532 13.0797 2.91116 13.8255 3.83199 13.8255H12.1653C13.0862 13.8255 13.832 13.0797 13.832 12.1589V5.49219H10.4987H4.63948C4.17865 5.49219 3.80615 5.1191 3.80615 4.65885C3.80615 4.1986 4.17865 3.82552 4.63948 3.82552L7.91199 3.81777L7.90539 3.80652C7.80376 3.63345 7.76638 3.5698 7.66032 3.35677C7.16365 2.36294 6.96116 2.15885 6.33199 2.15885Z" fill="#92A1D9"/>
</svg>
