<svg width="18" height="18" viewBox="0 0 18 18" fill="none" xmlns="http://www.w3.org/2000/svg">
<path fill-rule="evenodd" clip-rule="evenodd" d="M6.64156 2.46244C6.93406 1.40661 7.86239 0.665771 9.01156 0.665771C10.1607 0.665771 11.1149 1.38077 11.4074 2.4366C12.1616 2.64577 12.7616 3.24744 13.0741 3.9991H14.0116C15.8524 3.9991 17.3449 5.4916 17.3449 7.33243V13.9991C17.3449 15.8399 15.8524 17.3324 14.0116 17.3324H4.01156C2.17072 17.3324 0.678223 15.8399 0.678223 13.9991V7.33243C0.678223 5.4916 2.17072 3.9991 4.01156 3.9991H5.00155C5.17988 3.3591 5.8874 2.6716 6.64156 2.46244ZM9.84489 3.16577C9.84489 2.70577 9.47156 2.33244 9.01156 2.33244C8.55156 2.33244 8.17822 2.70577 8.17822 3.16577C8.17822 3.62576 7.80489 3.9991 7.34489 3.9991C6.88489 3.9991 6.51156 4.37243 6.51156 4.83243C6.51156 5.29243 6.88489 5.66576 7.34489 5.66576H10.6782C11.1382 5.66576 11.5116 5.29243 11.5116 4.83243C11.5116 4.37243 11.1382 3.9991 10.6782 3.9991C10.2182 3.9991 9.84489 3.62576 9.84489 3.16577ZM4.01156 5.66576H5.00155C5.34321 6.69326 6.28822 7.33243 7.34489 7.33243H10.6782C11.7349 7.33243 12.6241 6.73076 13.0482 5.66576H14.0116C14.9324 5.66576 15.6782 6.4116 15.6782 7.33243V13.9991C15.6782 14.9199 14.9324 15.6658 14.0116 15.6658H4.01156C3.09072 15.6658 2.34489 14.9199 2.34489 13.9991V7.33243C2.34489 6.4116 3.09072 5.66576 4.01156 5.66576ZM10.9124 9.23327C11.0757 9.07077 11.2982 8.99909 11.5116 8.99909C11.7249 8.99909 11.9474 9.07077 12.1107 9.23327C12.4357 9.5591 12.4357 10.1058 12.1107 10.4316L8.77738 13.7649C8.45155 14.0899 7.9049 14.0899 7.57906 13.7649L5.9124 12.0983C5.5874 11.7724 5.5874 11.2258 5.9124 10.8999C6.23823 10.5749 6.78488 10.5749 7.11071 10.8999L8.17822 11.9674L10.9124 9.23327Z" fill="#92A1D9"/>
</svg>
