<svg width="14" height="18" viewBox="0 0 14 18" fill="none" xmlns="http://www.w3.org/2000/svg">
<path fill-rule="evenodd" clip-rule="evenodd" d="M0.356934 3.99887C0.356934 2.15804 1.84935 0.665527 3.69027 0.665527H10.3569C12.1978 0.665527 13.6903 2.15804 13.6903 3.99887V13.9989C13.6903 15.8398 12.1978 17.3323 10.3569 17.3323H3.69027C1.84935 17.3323 0.356934 15.8398 0.356934 13.9989V3.99887ZM10.3569 2.3322H3.69027C2.76977 2.3322 2.0236 3.07804 2.0236 3.99887V13.9989C2.0236 14.9198 2.76977 15.6656 3.69027 15.6656H10.3569C11.2778 15.6656 12.0236 14.9198 12.0236 13.9989V3.99887C12.0236 3.07804 11.2778 2.3322 10.3569 2.3322ZM4.5236 3.99887C4.06335 3.99887 3.69027 4.3722 3.69027 4.83221C3.69027 5.29221 4.06335 5.66554 4.5236 5.66554H7.85693C8.31693 5.66554 8.69027 5.29221 8.69027 4.83221C8.69027 4.3722 8.31693 3.99887 7.85693 3.99887H4.5236ZM3.69027 8.58222C3.69027 7.89222 4.24993 7.33221 4.94027 7.33221H9.10693C9.79693 7.33221 10.3569 7.89222 10.3569 8.58222V12.7489C10.3569 13.4389 9.79693 13.9989 9.10693 13.9989H4.94027C4.24993 13.9989 3.69027 13.4389 3.69027 12.7489V8.58222Z" fill="#92A1D9"/>
</svg>
