<svg width="14" height="18" viewBox="0 0 14 18" fill="none" xmlns="http://www.w3.org/2000/svg">
<path fill-rule="evenodd" clip-rule="evenodd" d="M0.356934 3.45243C0.356934 1.8991 1.6991 0.665771 3.32568 0.665771H7.85693C10.8244 0.665771 13.6903 3.5041 13.6903 6.47326V6.4991V14.5458C13.6903 16.0991 12.3478 17.3324 10.7219 17.3324H3.32568C1.6991 17.3324 0.356934 16.0991 0.356934 14.5458V3.45243ZM7.0236 2.33244H3.32568C2.58535 2.33244 2.0236 2.85743 2.0236 3.45243V14.5458C2.0236 15.1408 2.58535 15.6658 3.32568 15.6658H10.7219C11.4619 15.6658 12.0236 15.1408 12.0236 14.5458V7.33244H10.3569C8.23027 7.33244 7.0236 6.12577 7.0236 3.9991V2.33244ZM8.69027 2.54077C10.1669 2.93244 11.4586 4.19327 11.8411 5.66577H10.3569C9.15027 5.66577 8.69027 5.20577 8.69027 3.9991V2.54077ZM3.69027 8.16577C3.69027 7.70577 4.06335 7.33244 4.5236 7.33244C4.98385 7.33244 5.35693 7.70577 5.35693 8.16577V13.1658C5.35693 13.6258 4.98385 13.9991 4.5236 13.9991C4.06335 13.9991 3.69027 13.6258 3.69027 13.1658V8.16577ZM7.0236 8.9991C6.5636 8.9991 6.19027 9.37244 6.19027 9.83244V13.1658C6.19027 13.6258 6.5636 13.9991 7.0236 13.9991C7.4836 13.9991 7.85693 13.6258 7.85693 13.1658V9.83244C7.85693 9.37244 7.4836 8.9991 7.0236 8.9991ZM8.69027 11.4991C8.69027 11.0391 9.0636 10.6658 9.5236 10.6658C9.9836 10.6658 10.3569 11.0391 10.3569 11.4991V13.1658C10.3569 13.6258 9.9836 13.9991 9.5236 13.9991C9.0636 13.9991 8.69027 13.6258 8.69027 13.1658V11.4991Z" fill="#92A1D9"/>
</svg>
