<svg width="16" height="16" viewBox="0 0 16 16" fill="none" xmlns="http://www.w3.org/2000/svg">
<path fill-rule="evenodd" clip-rule="evenodd" d="M3.82552 0.498657C1.9846 0.498657 0.492188 1.99116 0.492188 3.83198V12.1653C0.492188 14.0062 1.9846 15.4987 3.82552 15.4987H12.1589C13.9997 15.4987 15.4922 14.0062 15.4922 12.1653V3.83198C15.4922 1.99116 13.9997 0.498657 12.1589 0.498657H3.82552ZM3.82552 2.16532H12.1589C13.0797 2.16532 13.8255 2.91116 13.8255 3.83198V12.1653C13.8255 13.0862 13.0797 13.832 12.1589 13.832H3.82552C2.90502 13.832 2.15885 13.0862 2.15885 12.1653V3.83198C2.15885 2.91116 2.90502 2.16532 3.82552 2.16532ZM10.7264 5.57697C10.8897 5.41447 11.1122 5.34199 11.3255 5.34199C11.5389 5.34282 11.7614 5.41364 11.9247 5.57697C12.2497 5.90197 12.2497 6.42282 11.9247 6.74865L8.79969 9.87366C7.84135 10.832 6.37469 10.6887 5.62235 9.56116L4.78902 8.31114C4.53377 7.92781 4.64052 7.39447 5.02344 7.13947C5.40644 6.88364 5.94002 6.99032 6.19535 7.37365L7.02885 8.62364C7.19719 8.87616 7.41302 8.89032 7.62719 8.67532L10.7264 5.57697Z" fill="#92A1D9"/>
</svg>
