<svg width="16" height="16" viewBox="0 0 16 16" fill="none" xmlns="http://www.w3.org/2000/svg">
<path fill-rule="evenodd" clip-rule="evenodd" d="M0.498535 2.99231C0.498535 1.61156 1.6177 0.49231 2.99854 0.49231H6.33187C7.78604 0.49231 8.41771 1.12156 9.1702 2.62773C9.66687 3.62156 9.86937 3.82564 10.4985 3.82564H14.6652C15.1252 3.82564 15.4985 4.19873 15.4985 4.65898V12.159C15.4985 13.9998 14.006 15.4923 12.1652 15.4923H3.83187C1.99103 15.4923 0.498535 13.9998 0.498535 12.159V4.65898V2.99231ZM6.33187 2.15898H2.99854C2.53854 2.15898 2.1652 2.53206 2.1652 2.99231V4.65898V12.159C2.1652 13.0798 2.91104 13.8256 3.83187 13.8256H12.1652C13.086 13.8256 13.8319 13.0798 13.8319 12.159V5.49231H10.4985H4.63936C4.17853 5.49231 3.80603 5.11923 3.80603 4.65898C3.80603 4.19873 4.17853 3.82564 4.63936 3.82564L7.91187 3.81789L7.90527 3.80665C7.80364 3.63357 7.76626 3.56992 7.66019 3.35689C7.16353 2.36306 6.96104 2.15898 6.33187 2.15898Z" fill="#92A1D9"/>
</svg>
