<svg width="18" height="18" viewBox="0 0 18 18" fill="none" xmlns="http://www.w3.org/2000/svg">
<path fill-rule="evenodd" clip-rule="evenodd" d="M6.64181 2.46219C6.93431 1.40636 7.86263 0.665527 9.0118 0.665527C10.161 0.665527 11.1151 1.38053 11.4076 2.43636C12.1618 2.64553 12.7618 3.24719 13.0743 3.99885H14.0118C15.8526 3.99885 17.3451 5.49135 17.3451 7.33219V13.9989C17.3451 15.8397 15.8526 17.3322 14.0118 17.3322H4.0118C2.17097 17.3322 0.678467 15.8397 0.678467 13.9989V7.33219C0.678467 5.49135 2.17097 3.99885 4.0118 3.99885H5.00179C5.18013 3.35885 5.88764 2.67136 6.64181 2.46219ZM9.84513 3.16553C9.84513 2.70553 9.4718 2.33219 9.0118 2.33219C8.5518 2.33219 8.17847 2.70553 8.17847 3.16553C8.17847 3.62552 7.80513 3.99885 7.34513 3.99885C6.88513 3.99885 6.5118 4.37219 6.5118 4.83219C6.5118 5.29219 6.88513 5.66552 7.34513 5.66552H10.6785C11.1385 5.66552 11.5118 5.29219 11.5118 4.83219C11.5118 4.37219 11.1385 3.99885 10.6785 3.99885C10.2185 3.99885 9.84513 3.62552 9.84513 3.16553ZM4.0118 5.66552H5.00179C5.34346 6.69302 6.28847 7.33219 7.34513 7.33219H10.6785C11.7351 7.33219 12.6243 6.73052 13.0485 5.66552H14.0118C14.9326 5.66552 15.6785 6.41135 15.6785 7.33219V13.9989C15.6785 14.9197 14.9326 15.6655 14.0118 15.6655H4.0118C3.09097 15.6655 2.34513 14.9197 2.34513 13.9989V7.33219C2.34513 6.41135 3.09097 5.66552 4.0118 5.66552ZM10.9126 9.23303C11.076 9.07053 11.2985 8.99884 11.5118 8.99884C11.7251 8.99884 11.9476 9.07053 12.111 9.23303C12.436 9.55886 12.436 10.1055 12.111 10.4314L8.77763 13.7647C8.45179 14.0897 7.90514 14.0897 7.57931 13.7647L5.91264 12.098C5.58764 11.7722 5.58764 11.2255 5.91264 10.8997C6.23848 10.5747 6.78513 10.5747 7.11096 10.8997L8.17847 11.9672L10.9126 9.23303Z" fill="#92A1D9"/>
</svg>
