<svg width="18" height="16" viewBox="0 0 18 16" fill="none" xmlns="http://www.w3.org/2000/svg">
<path fill-rule="evenodd" clip-rule="evenodd" d="M4.83219 3.82564C4.83219 1.98481 6.32461 0.49231 8.16553 0.49231H9.83219C11.6731 0.49231 13.1655 1.98481 13.1655 3.82564H13.9989C15.8398 3.82564 17.3322 5.31814 17.3322 7.15898V12.159C17.3322 13.9998 15.8398 15.4923 13.9989 15.4923H3.99886C2.15794 15.4923 0.665527 13.9998 0.665527 12.159V7.15898C0.665527 5.31814 2.15794 3.82564 3.99886 3.82564H4.83219ZM9.83219 2.15898H8.16553C7.24503 2.15898 6.49886 2.90481 6.49886 3.82564H11.4989C11.4989 2.90481 10.7527 2.15898 9.83219 2.15898ZM3.99886 5.49231H13.9989C14.9194 5.49231 15.6655 6.23814 15.6655 7.15898V7.39315L11.2124 8.87731C10.0165 9.27648 7.98119 9.27648 6.78536 8.87731L2.33219 7.39315V7.15898C2.33219 6.23814 3.07836 5.49231 3.99886 5.49231ZM6.26453 10.4665L2.33219 9.13814V12.159C2.33219 13.0798 3.07836 13.8256 3.99886 13.8256H13.9989C14.9194 13.8256 15.6655 13.0798 15.6655 12.159V9.13814L11.7332 10.4665C10.1953 10.979 7.80244 10.979 6.26453 10.4665Z" fill="#92A1D9"/>
</svg>
