<svg width="18" height="18" viewBox="0 0 18 18" fill="none" xmlns="http://www.w3.org/2000/svg">
<path fill-rule="evenodd" clip-rule="evenodd" d="M0 9C0 4.0293 4.0293 0 9.00004 0C13.9707 0 18 4.0293 18 9C18 13.9707 13.9707 18 9.00004 18C4.0293 18 0 13.9707 0 9ZM16.2 9C16.2 5.0238 12.9762 1.8 9.00004 1.8C5.0238 1.8 1.8 5.0238 1.8 9C1.8 12.9762 5.0238 16.2 9.00004 16.2C12.9762 16.2 16.2 12.9762 16.2 9ZM12.3192 4.55581L6.9192 6.35581C6.6501 6.44581 6.4458 6.65009 6.3558 6.91919L4.5558 12.3192C4.3218 13.0221 4.9779 13.6782 5.6808 13.4442C6.1928 13.2731 8.64045 12.4574 10.0908 11.9741L10.1071 11.9687L11.0808 11.6442C11.3499 11.5542 11.5542 11.3499 11.6442 11.0808L13.4442 5.68081C13.6782 4.97791 13.0221 4.32181 12.3192 4.55581ZM10.0971 10.0971L11.1942 6.80581L7.90294 7.9029L6.8058 11.1942C7.72411 10.8879 8.63924 10.5829 9.34618 10.3474C9.63628 10.2507 9.89132 10.1657 10.0971 10.0971Z" fill="#92A1D9"/>
</svg>
