<svg width="48" height="48" viewBox="0 0 48 48" fill="none" xmlns="http://www.w3.org/2000/svg">
<path fill-rule="evenodd" clip-rule="evenodd" d="M24.0329 0.662109C11.1464 0.662109 0.699585 11.1084 0.699585 23.9954C0.699585 36.8824 11.1464 47.3288 24.0329 47.3288C36.9195 47.3288 47.3663 36.8824 47.3663 23.9954C47.3663 11.1084 36.9195 0.662109 24.0329 0.662109ZM24.0331 5.33086C34.3424 5.33086 42.6997 13.6888 42.6997 23.9975C42.6997 34.3062 34.3424 42.6642 24.0331 42.6642C13.7237 42.6642 5.36638 34.3062 5.36638 23.9975C5.36638 13.6888 13.7237 5.33086 24.0331 5.33086ZM31.6892 17.649C32.1449 17.194 32.7693 16.9934 33.3664 16.9934C33.9635 16.9934 34.5879 17.194 35.0436 17.649C35.9548 18.5614 35.9548 20.092 35.0436 21.0043L26.2936 29.682C23.6096 32.3654 19.5031 31.964 17.3975 28.8047L15.0642 25.3047C14.3495 24.2337 14.6484 22.7404 15.7206 22.024C16.793 21.31 18.287 21.6086 19.0019 22.682L21.3353 26.182C21.8071 26.889 22.4107 27.001 23.0122 26.399L31.6892 17.649Z" fill="#60D69A"/>
</svg>
