<svg width="18" height="11" viewBox="0 0 18 11" fill="none" xmlns="http://www.w3.org/2000/svg">
<path fill-rule="evenodd" clip-rule="evenodd" d="M0.9 0.5C0.4032 0.5 0 0.873334 0 1.33333C0 1.79334 0.4032 2.16667 0.9 2.16667H17.1C17.5968 2.16667 18 1.79334 18 1.33333C18 0.873334 17.5968 0.5 17.1 0.5H0.9ZM0.9 4.66666C0.4032 4.66666 0 5.03999 0 5.49999C0 5.95999 0.4032 6.33333 0.9 6.33333H17.1C17.5968 6.33333 18 5.95999 18 5.49999C18 5.03999 17.5968 4.66666 17.1 4.66666H0.9ZM0 9.66667C0 9.20666 0.4032 8.83333 0.9 8.83333H17.1C17.5968 8.83333 18 9.20666 18 9.66667C18 10.1267 17.5968 10.5 17.1 10.5H0.9C0.4032 10.5 0 10.1267 0 9.66667Z" fill="#C6C8D8"/>
</svg>
