<svg width="15" height="14" viewBox="0 0 15 14" fill="none" xmlns="http://www.w3.org/2000/svg">
<path opacity="0.977974" fill-rule="evenodd" clip-rule="evenodd" d="M0.243042 3.24804C0.243042 1.5913 1.58629 0.248047 3.24304 0.248047H9.24304C9.65704 0.248047 9.99304 0.584046 9.99304 0.998045C9.99304 1.41205 9.65704 1.74805 9.24304 1.74805H3.24304C2.41429 1.74805 1.74304 2.4193 1.74304 3.24804V10.748C1.74304 11.5768 2.41429 12.248 3.24304 12.248H10.743C11.5718 12.248 12.243 11.5768 12.243 10.748V7.74803C12.243 7.33403 12.579 6.99803 12.993 6.99803C13.407 6.99803 13.743 7.33403 13.743 7.74803V10.748C13.743 12.4048 12.3998 13.748 10.743 13.748H3.24304C1.58629 13.748 0.243042 12.4048 0.243042 10.748V3.24804ZM13.2038 1.2088C13.35 1.06555 13.551 0.998045 13.743 0.998045C13.935 0.998045 14.136 1.0648 14.2823 1.2088C14.5748 1.4968 14.5748 1.9528 14.2823 2.24005L7.71979 8.68555C6.85804 9.53305 5.5358 9.40105 4.86005 8.4043L4.11005 7.30254C3.88055 6.96429 3.9773 6.49704 4.32155 6.27129C4.66505 6.04554 5.14654 6.1438 5.37604 6.48205L6.12604 7.58379C6.27754 7.8073 6.47179 7.8208 6.66454 7.63103L13.2038 1.2088Z" fill="#92A1D9"/>
</svg>
