<svg width="16" height="16" viewBox="0 0 16 16" fill="none" xmlns="http://www.w3.org/2000/svg">
<path fill-rule="evenodd" clip-rule="evenodd" d="M0.492188 3.77474C0.492188 1.93382 1.98469 0.441406 3.82551 0.441406H12.1589C13.9997 0.441406 15.4922 1.93382 15.4922 3.77474V12.1081C15.4922 13.949 13.9997 15.4414 12.1589 15.4414H3.82551C1.98469 15.4414 0.492188 13.949 0.492188 12.1081V3.77474ZM12.1589 2.10807H3.82551C2.90469 2.10807 2.15885 2.85424 2.15885 3.77474V12.1081C2.15885 13.0286 2.90469 13.7747 3.82551 13.7747H12.1589C13.0797 13.7747 13.8255 13.0286 13.8255 12.1081V3.77474C13.8255 2.85424 13.0797 2.10807 12.1589 2.10807Z" fill="#2D365C"/>
</svg>
