<svg width="14" height="14" viewBox="0 0 14 14" fill="none" xmlns="http://www.w3.org/2000/svg">
<path fill-rule="evenodd" clip-rule="evenodd" d="M4.32711 2.96939L6.99377 0.302734L9.66044 2.96939H7.66044V9.63607C7.66044 10.0041 7.36177 10.3027 6.99377 10.3027C6.62577 10.3027 6.32711 10.0041 6.32711 9.63607V2.96939H4.32711ZM0.993774 8.9694C0.993774 8.6014 1.29244 8.30273 1.66044 8.30273C2.02844 8.30273 2.32711 8.6014 2.32711 8.9694V10.3027C2.32711 11.0393 2.92377 11.636 3.66044 11.636H10.3271C11.0638 11.636 11.6604 11.0393 11.6604 10.3027V8.9694C11.6604 8.6014 11.9591 8.30273 12.3271 8.30273C12.6951 8.30273 12.9938 8.6014 12.9938 8.9694V10.3027C12.9938 11.7753 11.7998 12.9693 10.3271 12.9693H3.66044C2.18777 12.9693 0.993774 11.7753 0.993774 10.3027V8.9694Z" fill="#262523"/>
</svg>
